<svg width="52" height="50" viewBox="0 0 52 50" fill="none" xmlns="http://www.w3.org/2000/svg">
<path d="M43.6 23.09V45.71L26.93 47.78L8.40002 45.71V23.09H43.6Z" fill="#E0E9EE"/>
<path d="M40.6899 23.09V45.71H43.5999V23.09H40.6899Z" fill="#D0E1E8"/>
<path d="M3.64994 45.71H48.3499C48.5767 45.6923 48.8048 45.7217 49.0197 45.7963C49.2346 45.871 49.4317 45.9893 49.5987 46.1437C49.7657 46.2982 49.899 46.4856 49.9901 46.694C50.0812 46.9025 50.1283 47.1275 50.1283 47.355C50.1283 47.5825 50.0812 47.8075 49.9901 48.016C49.899 48.2244 49.7657 48.4118 49.5987 48.5663C49.4317 48.7207 49.2346 48.839 49.0197 48.9137C48.8048 48.9883 48.5767 49.0177 48.3499 49H3.64994C3.42313 49.0177 3.19511 48.9883 2.98021 48.9137C2.76531 48.839 2.56816 48.7207 2.40115 48.5663C2.23415 48.4118 2.1009 48.2244 2.00976 48.016C1.91863 47.8075 1.87158 47.5825 1.87158 47.355C1.87158 47.1275 1.91863 46.9025 2.00976 46.694C2.1009 46.4856 2.23415 46.2982 2.40115 46.1437C2.56816 45.9893 2.76531 45.871 2.98021 45.7963C3.19511 45.7217 3.42313 45.6923 3.64994 45.71Z" fill="#748A95"/>
<path d="M19.33 0.999998H14.33C14.0053 0.998675 13.6835 1.06166 13.3832 1.18532C13.0829 1.30898 12.8101 1.49087 12.5805 1.72049C12.3509 1.95012 12.169 2.22294 12.0453 2.52321C11.9217 2.82348 11.8587 3.14526 11.86 3.47V9.56L27 13.26L40.16 9.56V3.47C40.1613 3.14695 40.099 2.8268 39.9766 2.52783C39.8542 2.22887 39.6741 1.95694 39.4466 1.72758C39.2191 1.49822 38.9486 1.31591 38.6506 1.19108C38.3527 1.06624 38.0331 1.00131 37.71 0.999998H36.24L34.51 2L33.07 0.999998H27.94L24 2.11L19.33 0.999998Z" fill="#748A95"/>
<path d="M27.9399 1V8.13C27.9099 8.4899 27.7457 8.82537 27.4799 9.06988C27.2141 9.31439 26.8661 9.4501 26.505 9.4501C26.1438 9.4501 25.7958 9.31439 25.53 9.06988C25.2642 8.82537 25.1 8.4899 25.07 8.13V4.9C25.0399 4.5401 24.8757 4.20463 24.6099 3.96012C24.3441 3.71561 23.9961 3.5799 23.635 3.5799C23.2738 3.5799 22.9258 3.71561 22.66 3.96012C22.3942 4.20463 22.23 4.5401 22.2 4.9C22.2165 5.09852 22.1918 5.29832 22.1272 5.48676C22.0626 5.67521 21.9596 5.84821 21.8247 5.99482C21.6899 6.14143 21.526 6.25846 21.3436 6.33851C21.1612 6.41856 20.9642 6.4599 20.765 6.4599C20.5657 6.4599 20.3687 6.41856 20.1863 6.33851C20.0039 6.25846 19.84 6.14143 19.7052 5.99482C19.5703 5.84821 19.4673 5.67521 19.4027 5.48676C19.3381 5.29832 19.3134 5.09852 19.33 4.9V1H27.9399Z" fill="#F0F4F7"/>
<path d="M37.51 26C37.5602 26.9832 37.9861 27.9096 38.6998 28.5878C39.4135 29.266 40.3604 29.6441 41.345 29.6441C42.3295 29.6441 43.2764 29.266 43.9901 28.5878C44.7038 27.9096 45.1297 26.9832 45.18 26V21.3C45.1661 19.9384 44.823 18.6003 44.18 17.4L40.18 9.58H34.51L32 11.86L28.84 9.56H23.16L19.42 11.41L17.49 9.56H11.82L7.76995 17.38C7.14426 18.5847 6.81837 19.9225 6.81995 21.28V26C6.87018 26.9832 7.29613 27.9096 8.00983 28.5878C8.72352 29.266 9.67043 29.6441 10.655 29.6441C11.6395 29.6441 12.5864 29.266 13.3001 28.5878C14.0138 27.9096 14.4397 26.9832 14.49 26H22.16C22.16 27.0184 22.5645 27.9951 23.2847 28.7153C24.0048 29.4354 24.9815 29.84 26 29.84C27.0184 29.84 27.9951 29.4354 28.7152 28.7153C29.4354 27.9951 29.84 27.0184 29.84 26H37.51Z" fill="#F6E782"/>
<path d="M17.49 9.56L14.49 19.22V26C14.5402 26.9832 14.9662 27.9096 15.6799 28.5878C16.3936 29.266 17.3405 29.6441 18.325 29.6441C19.3095 29.6441 20.2564 29.266 20.9701 28.5878C21.6838 27.9096 22.1098 26.9832 22.16 26V19.22L23.16 9.56H17.49ZM28.84 9.56L29.84 19.22V26C29.8902 26.9832 30.3162 27.9096 31.0299 28.5878C31.7436 29.266 32.6905 29.6441 33.675 29.6441C34.6595 29.6441 35.6064 29.266 36.3201 28.5878C37.0338 27.9096 37.4598 26.9832 37.51 26V19.22L34.51 9.56H28.84Z" fill="#DD5891"/>
<path d="M19.9999 33.84H38.4799C38.6931 33.8387 38.9043 33.8797 39.1015 33.9606C39.2986 34.0415 39.4777 34.1608 39.6284 34.3115C39.7791 34.4622 39.8984 34.6413 39.9793 34.8385C40.0603 35.0356 40.1013 35.2469 40.0999 35.46V38.68C40.0999 39.1096 39.9293 39.5217 39.6255 39.8255C39.3216 40.1293 38.9096 40.3 38.4799 40.3H19.9999L18.4399 37.38L19.9999 33.84Z" fill="#94D8E5"/>
<path d="M15.24 33.84H20V45.71H13.4V35.71C13.396 35.4659 13.4407 35.2234 13.5314 34.9966C13.6221 34.7699 13.757 34.5635 13.9282 34.3895C14.0995 34.2154 14.3037 34.0772 14.5289 33.9829C14.7541 33.8885 14.9958 33.84 15.24 33.84Z" fill="#617880"/>
<path d="M43.88 45.71C44.2941 45.7423 44.6808 45.9296 44.9629 46.2346C45.245 46.5395 45.4016 46.9396 45.4016 47.355C45.4016 47.7704 45.245 48.1705 44.9629 48.4754C44.6808 48.7804 44.2941 48.9677 43.88 49H48.35C48.5768 49.0177 48.8048 48.9883 49.0197 48.9137C49.2346 48.839 49.4318 48.7207 49.5988 48.5663C49.7658 48.4118 49.899 48.2244 49.9902 48.016C50.0813 47.8075 50.1284 47.5825 50.1284 47.355C50.1284 47.1275 50.0813 46.9025 49.9902 46.694C49.899 46.4856 49.7658 46.2982 49.5988 46.1437C49.4318 45.9893 49.2346 45.871 49.0197 45.7963C48.8048 45.7217 48.5768 45.6923 48.35 45.71H43.88Z" fill="#617880"/>
<path d="M37.3199 9.56L41.3199 17.38C41.963 18.5803 42.3061 19.9184 42.3199 21.28V26C42.3213 26.7653 42.0935 27.5134 41.6657 28.1479C41.2379 28.7824 40.6299 29.2743 39.9199 29.56C40.3744 29.7425 40.8602 29.8342 41.3499 29.83C41.8533 29.8313 42.3519 29.7332 42.8172 29.5411C43.2825 29.3491 43.7052 29.0671 44.0611 28.7112C44.417 28.3552 44.6991 27.9325 44.8911 27.4672C45.0831 27.002 45.1813 26.5033 45.1799 26V21.3C45.1661 19.9384 44.823 18.6003 44.1799 17.4L40.1799 9.58L37.3199 9.56Z" fill="#F5D96D"/>
<path d="M40.1799 9.56V3.47C40.1813 3.14526 40.1183 2.82348 39.9946 2.52321C39.8709 2.22294 39.6891 1.95012 39.4594 1.72049C39.2298 1.49087 38.957 1.30898 38.6567 1.18532C38.3565 1.06166 38.0347 0.998675 37.7099 0.999998H35.5499L35.4299 1.07C35.9749 1.19262 36.4619 1.49706 36.8109 1.93325C37.1598 2.36944 37.3499 2.9114 37.3499 3.47V9.56H40.1799Z" fill="#617880"/>
<path d="M36.2399 1V5.33C36.2083 5.72863 36.0275 6.10068 35.7338 6.372C35.44 6.64333 35.0548 6.794 34.6549 6.794C34.2551 6.794 33.8699 6.64333 33.5761 6.372C33.2824 6.10068 33.1016 5.72863 33.0699 5.33V1H36.2399Z" fill="#F0F4F7"/>
<path d="M35.6 33.84C35.8131 33.8387 36.0243 33.8797 36.2215 33.9606C36.4186 34.0415 36.5978 34.1608 36.7485 34.3115C36.8991 34.4622 37.0184 34.6413 37.0994 34.8385C37.1803 35.0356 37.2213 35.2469 37.22 35.46V38.68C37.22 39.1096 37.0493 39.5217 36.7455 39.8255C36.4417 40.1293 36.0296 40.3 35.6 40.3H38.48C38.9096 40.3 39.3217 40.1293 39.6255 39.8255C39.9293 39.5217 40.1 39.1096 40.1 38.68V35.46C40.1013 35.2469 40.0603 35.0356 39.9794 34.8385C39.8984 34.6413 39.7791 34.4622 39.6284 34.3115C39.4778 34.1608 39.2986 34.0415 39.1015 33.9606C38.9043 33.8797 38.6931 33.8387 38.48 33.84H35.6Z" fill="#7BD1E0"/>
<path d="M6.34998 14C6.57959 14.1304 6.85145 14.1646 7.10624 14.0953C7.36103 14.026 7.57806 13.8587 7.70998 13.63C7.77651 13.5165 7.81998 13.3909 7.83789 13.2605C7.8558 13.1302 7.84781 12.9975 7.81436 12.8703C7.78092 12.743 7.72268 12.6236 7.643 12.5189C7.56331 12.4141 7.46373 12.3262 7.34998 12.26L6.99998 12.08C6.88616 12.0077 6.75888 11.9591 6.6258 11.9372C6.49272 11.9153 6.35659 11.9205 6.22559 11.9526C6.09459 11.9847 5.97144 12.043 5.86354 12.1239C5.75564 12.2048 5.66523 12.3067 5.59773 12.4235C5.53024 12.5402 5.48706 12.6695 5.4708 12.8033C5.45453 12.9372 5.46552 13.073 5.5031 13.2025C5.54068 13.3321 5.60407 13.4527 5.68946 13.5571C5.77485 13.6614 5.88047 13.7475 5.99998 13.81L6.34998 14Z" fill="black"/>
<path d="M1.79995 11.36C1.94995 11.4532 2.12337 11.5017 2.29995 11.5C2.52224 11.5038 2.73946 11.4335 2.91729 11.3C3.09513 11.1666 3.22343 10.9778 3.28192 10.7633C3.34042 10.5488 3.32577 10.3209 3.2403 10.1157C3.15483 9.91045 3.0034 9.73956 2.80995 9.63L2.49995 9.46C2.38641 9.39347 2.26086 9.35 2.13049 9.33208C2.00012 9.31417 1.86749 9.32217 1.74022 9.35561C1.61295 9.38906 1.49352 9.44729 1.3888 9.52698C1.28408 9.60667 1.19611 9.70625 1.12995 9.82C1.06383 9.93413 1.02094 10.0602 1.00376 10.191C0.986578 10.3218 0.995437 10.4547 1.02983 10.582C1.06422 10.7093 1.12346 10.8286 1.20415 10.933C1.28483 11.0373 1.38536 11.1247 1.49995 11.19L1.79995 11.36Z" fill="black"/>
<path d="M1.12996 13.62C1.19445 13.7354 1.28119 13.8369 1.38516 13.9186C1.48913 14.0003 1.60826 14.0605 1.73567 14.0959C1.86308 14.1312 1.99623 14.1409 2.12742 14.1245C2.25861 14.108 2.38523 14.0657 2.49996 14L2.79996 13.82C3.01763 13.6816 3.17341 13.4645 3.23478 13.214C3.29614 12.9635 3.25833 12.6989 3.12926 12.4756C3.00018 12.2523 2.78982 12.0875 2.54211 12.0157C2.2944 11.9438 2.0285 11.9704 1.79996 12.09L1.48996 12.26C1.26293 12.3936 1.09777 12.6113 1.03037 12.866C0.962962 13.1206 0.998752 13.3916 1.12996 13.62Z" fill="black"/>
<path d="M6.34994 9.46L6.03994 9.63C5.92569 9.69566 5.8255 9.78318 5.74507 9.88756C5.66464 9.99195 5.60556 10.1112 5.57121 10.2384C5.53685 10.3656 5.52789 10.4983 5.54483 10.629C5.56177 10.7597 5.60428 10.8857 5.66994 11C5.7356 11.1142 5.82313 11.2144 5.92751 11.2949C6.03189 11.3753 6.1511 11.4344 6.27831 11.4687C6.53524 11.5381 6.80921 11.5026 7.03994 11.37L7.34994 11.19C7.4637 11.1238 7.56327 11.0359 7.64296 10.9311C7.72265 10.8264 7.78089 10.707 7.81433 10.5797C7.84778 10.4525 7.85577 10.3198 7.83786 10.1895C7.81994 10.0591 7.77648 9.93353 7.70994 9.82C7.57636 9.59296 7.3586 9.42781 7.10395 9.3604C6.84931 9.29299 6.57835 9.32878 6.34994 9.46Z" fill="black"/>
<path d="M3.42004 14.52C3.42004 14.7852 3.5254 15.0396 3.71294 15.2271C3.90047 15.4146 4.15483 15.52 4.42004 15.52C4.68526 15.52 4.93961 15.4146 5.12715 15.2271C5.31469 15.0396 5.42004 14.7852 5.42004 14.52V14.17C5.42004 13.9048 5.31469 13.6504 5.12715 13.4629C4.93961 13.2754 4.68526 13.17 4.42004 13.17C4.15483 13.17 3.90047 13.2754 3.71294 13.4629C3.5254 13.6504 3.42004 13.9048 3.42004 14.17V14.52Z" fill="black"/>
<path d="M3.42004 8.92V9.28C3.42004 9.54522 3.5254 9.79957 3.71294 9.9871C3.90047 10.1746 4.15483 10.28 4.42004 10.28C4.68526 10.28 4.93961 10.1746 5.12715 9.9871C5.31469 9.79957 5.42004 9.54522 5.42004 9.28V8.92C5.42004 8.65478 5.31469 8.40043 5.12715 8.21289C4.93961 8.02536 4.68526 7.92 4.42004 7.92C4.15483 7.92 3.90047 8.02536 3.71294 8.21289C3.5254 8.40043 3.42004 8.65478 3.42004 8.92Z" fill="black"/>
<path d="M48.35 44.71H44.6V29.53C45.0952 29.0845 45.4917 28.5403 45.7638 27.9323C46.0359 27.3243 46.1777 26.6661 46.18 26V21.3C46.1768 19.7832 45.8135 18.2889 45.12 16.94L41.18 9.34V3.47C41.18 3.01431 41.0902 2.56309 40.9159 2.14209C40.7415 1.72109 40.4859 1.33856 40.1637 1.01634C39.8414 0.69412 39.4589 0.438522 39.0379 0.264138C38.6169 0.0897544 38.1657 0 37.71 0H14.29C13.3697 0 12.4871 0.365588 11.8363 1.01634C11.1856 1.66709 10.82 2.5497 10.82 3.47V9.32L6.87999 16.92C6.18649 18.2689 5.82319 19.7632 5.81999 21.28V26C5.81948 26.6695 5.95991 27.3316 6.23212 27.9432C6.50434 28.5548 6.90226 29.1023 7.39999 29.55V44.71H3.64999C3.28897 44.6878 2.92722 44.7397 2.58702 44.8626C2.24683 44.9855 1.93539 45.1767 1.67189 45.4245C1.40838 45.6723 1.1984 45.9714 1.05486 46.3034C0.911329 46.6354 0.83728 46.9933 0.83728 47.355C0.83728 47.7167 0.911329 48.0746 1.05486 48.4066C1.1984 48.7386 1.40838 49.0377 1.67189 49.2855C1.93539 49.5333 2.24683 49.7245 2.58702 49.8474C2.92722 49.9703 3.28897 50.0222 3.64999 50H48.35C48.711 50.0222 49.0728 49.9703 49.413 49.8474C49.7532 49.7245 50.0646 49.5333 50.3281 49.2855C50.5916 49.0377 50.8016 48.7386 50.9451 48.4066C51.0887 48.0746 51.1627 47.7167 51.1627 47.355C51.1627 46.9933 51.0887 46.6354 50.9451 46.3034C50.8016 45.9714 50.5916 45.6723 50.3281 45.4245C50.0646 45.1767 49.7532 44.9855 49.413 44.8626C49.0728 44.7397 48.711 44.6878 48.35 44.71ZM7.81999 26V21.3C7.82175 20.9452 7.84849 20.591 7.89999 20.24H13.49V26C13.447 26.7228 13.1297 27.4019 12.6027 27.8984C12.0758 28.395 11.379 28.6716 10.655 28.6716C9.93094 28.6716 9.23422 28.395 8.70727 27.8984C8.18033 27.4019 7.86294 26.7228 7.81999 26ZM15.49 20.24H21.16V26C21.117 26.7228 20.7997 27.4019 20.2727 27.8984C19.7458 28.395 19.049 28.6716 18.325 28.6716C17.6009 28.6716 16.9042 28.395 16.3773 27.8984C15.8503 27.4019 15.5329 26.7228 15.49 26V20.24ZM22.06 10.58L21.26 18.24H15.85L18.23 10.58H22.06ZM26.06 8.14V4.9C26.0203 4.28117 25.7465 3.70066 25.2942 3.27644C24.8419 2.85222 24.2451 2.61613 23.625 2.61613C23.0049 2.61613 22.4081 2.85222 21.9558 3.27644C21.5035 3.70066 21.2297 4.28117 21.19 4.9C21.1995 4.96265 21.1954 5.02663 21.1779 5.08754C21.1604 5.14845 21.13 5.20487 21.0887 5.25293C21.0474 5.301 20.9962 5.33957 20.9386 5.36601C20.881 5.39245 20.8184 5.40614 20.755 5.40614C20.6916 5.40614 20.629 5.39245 20.5714 5.36601C20.5138 5.33957 20.4626 5.301 20.4213 5.25293C20.38 5.20487 20.3496 5.14845 20.3321 5.08754C20.3146 5.02663 20.3105 4.96265 20.32 4.9V2H26.93V8.12C26.9395 8.18265 26.9354 8.24662 26.9179 8.30754C26.9004 8.36845 26.87 8.42487 26.8287 8.47293C26.7874 8.521 26.7362 8.55957 26.6786 8.58601C26.621 8.61245 26.5584 8.62614 26.495 8.62614C26.4316 8.62614 26.369 8.61245 26.3114 8.58601C26.2538 8.55957 26.2026 8.521 26.1613 8.47293C26.12 8.42487 26.0896 8.36845 26.0721 8.30754C26.0546 8.24662 26.0505 8.18265 26.06 8.12V8.14ZM33.76 10.58L36.14 18.24H30.74L29.94 10.58H33.76ZM27.92 10.58L28.72 18.24H23.27L24.07 10.58H27.92ZM23.15 20.24H28.83V26C28.83 26.7532 28.5308 27.4756 27.9982 28.0082C27.4656 28.5408 26.7432 28.84 25.99 28.84C25.2368 28.84 24.5144 28.5408 23.9818 28.0082C23.4492 27.4756 23.15 26.7532 23.15 26V20.24ZM30.83 20.24H36.5V26C36.457 26.7228 36.1397 27.4019 35.6127 27.8984C35.0858 28.395 34.389 28.6716 33.665 28.6716C32.9409 28.6716 32.2442 28.395 31.7173 27.8984C31.1903 27.4019 30.8729 26.7228 30.83 26V20.24ZM38.5 20.24H44.1C44.1515 20.591 44.1782 20.9452 44.18 21.3V26C44.137 26.7228 43.8197 27.4019 43.2927 27.8984C42.7658 28.395 42.069 28.6716 41.345 28.6716C40.6209 28.6716 39.9242 28.395 39.3973 27.8984C38.8703 27.4019 38.5529 26.7228 38.51 26L38.5 20.24ZM43.33 17.86C43.4 17.98 43.44 18.11 43.5 18.24H38.25L35.87 10.58H39.57L43.33 17.86ZM39.18 3.47V8.56H28.9C28.9103 8.41352 28.9103 8.26649 28.9 8.12V2H32.03V5.33C32.0709 5.98779 32.3611 6.60524 32.8414 7.05656C33.3217 7.50789 33.9559 7.75914 34.615 7.75914C35.2741 7.75914 35.9083 7.50789 36.3886 7.05656C36.8689 6.60524 37.1591 5.98779 37.2 5.33V2H37.67C37.8664 1.99465 38.0618 2.02873 38.2448 2.1002C38.4278 2.17168 38.5946 2.27911 38.7354 2.41615C38.8762 2.55319 38.988 2.71705 39.0644 2.89806C39.1408 3.07907 39.1801 3.27354 39.18 3.47ZM34.07 2H35.24V5.33C35.2214 5.47199 35.1518 5.60236 35.0441 5.69682C34.9365 5.79127 34.7982 5.84335 34.655 5.84335C34.5118 5.84335 34.3735 5.79127 34.2658 5.69682C34.1582 5.60236 34.0886 5.47199 34.07 5.33V2ZM14.29 2H18.29V4.9C18.2687 5.23289 18.3158 5.56663 18.4285 5.88058C18.5412 6.19454 18.7171 6.48205 18.9453 6.72535C19.1735 6.96866 19.4492 7.16259 19.7553 7.29516C20.0614 7.42773 20.3914 7.49613 20.725 7.49613C21.0586 7.49613 21.3886 7.42773 21.6947 7.29516C22.0008 7.16259 22.2765 6.96866 22.5047 6.72535C22.7329 6.48205 22.9088 6.19454 23.0215 5.88058C23.1342 5.56663 23.1813 5.23289 23.16 4.9C23.1758 4.79596 23.2284 4.70104 23.3082 4.63245C23.388 4.56386 23.4898 4.52614 23.595 4.52614C23.7002 4.52614 23.802 4.56386 23.8818 4.63245C23.9616 4.70104 24.0142 4.79596 24.03 4.9V8.12C24.0313 8.26801 24.048 8.41548 24.08 8.56H12.82V3.47C12.82 3.08013 12.9749 2.70623 13.2505 2.43055C13.5262 2.15488 13.9001 2 14.29 2ZM12.43 10.56H16.13L13.75 18.22H8.48999C8.54999 18.09 8.58999 17.96 8.65999 17.84L12.43 10.56ZM9.42999 30.63C9.83671 30.7457 10.2571 30.8063 10.68 30.81C11.4224 30.812 12.1552 30.6424 12.8213 30.3146C13.4874 29.9867 14.0687 29.5095 14.52 28.92C14.9721 29.5072 15.553 29.9827 16.2179 30.3099C16.8828 30.6371 17.6139 30.8073 18.355 30.8073C19.0961 30.8073 19.8272 30.6371 20.4921 30.3099C21.157 29.9827 21.7379 29.5072 22.19 28.92C22.6431 29.5073 23.2249 29.9829 23.8906 30.3101C24.5563 30.6373 25.2882 30.8074 26.03 30.8074C26.7718 30.8074 27.5037 30.6373 28.1694 30.3101C28.8351 29.9829 29.4169 29.5073 29.87 28.92C30.3221 29.5072 30.903 29.9827 31.5679 30.3099C32.2328 30.6371 32.9639 30.8073 33.705 30.8073C34.4461 30.8073 35.1772 30.6371 35.8421 30.3099C36.507 29.9827 37.0879 29.5072 37.54 28.92C37.9913 29.5095 38.5726 29.9867 39.2387 30.3146C39.9048 30.6424 40.6376 30.812 41.38 30.81C41.8028 30.8063 42.2233 30.7457 42.63 30.63V44.71H21V41.3H38.48C39.1749 41.3 39.8413 41.024 40.3326 40.5326C40.824 40.0413 41.1 39.3749 41.1 38.68V35.46C41.1 34.7651 40.824 34.0987 40.3326 33.6074C39.8413 33.116 39.1749 32.84 38.48 32.84H15.24C14.4859 32.84 13.7625 33.1389 13.2283 33.6712C12.6941 34.2035 12.3926 34.9259 12.39 35.68V44.68H9.38999L9.42999 30.63ZM32.77 34.84V39.3H27.35V34.84H32.77ZM38.51 34.84C38.6744 34.84 38.8321 34.9053 38.9484 35.0216C39.0647 35.1379 39.13 35.2956 39.13 35.46V38.68C39.13 38.8444 39.0647 39.0021 38.9484 39.1184C38.8321 39.2347 38.6744 39.3 38.51 39.3H34.74V34.84H38.51ZM25.35 39.3H21V34.84H25.36L25.35 39.3ZM19 44.71H14.4V35.71C14.4026 35.4863 14.4933 35.2727 14.6525 35.1154C14.8116 34.9582 15.0263 34.87 15.25 34.87H19V44.71ZM48.35 48H3.64999C3.55855 48.0114 3.46572 48.0032 3.37768 47.976C3.28963 47.9488 3.20837 47.9032 3.13929 47.8422C3.07022 47.7812 3.0149 47.7063 2.97701 47.6223C2.93912 47.5382 2.91952 47.4472 2.91952 47.355C2.91952 47.2628 2.93912 47.1717 2.97701 47.0877C3.0149 47.0037 3.07022 46.9288 3.13929 46.8678C3.20837 46.8068 3.28963 46.7612 3.37768 46.734C3.46572 46.7068 3.55855 46.6986 3.64999 46.71H48.35C48.4414 46.6986 48.5343 46.7068 48.6223 46.734C48.7104 46.7612 48.7916 46.8068 48.8607 46.8678C48.9298 46.9288 48.9851 47.0037 49.023 47.0877C49.0609 47.1717 49.0805 47.2628 49.0805 47.355C49.0805 47.4472 49.0609 47.5382 49.023 47.6223C48.9851 47.7063 48.9298 47.7812 48.8607 47.8422C48.7916 47.9032 48.7104 47.9488 48.6223 47.976C48.5343 48.0032 48.4414 48.0114 48.35 48Z" fill="black"/>
<path d="M47.51 15.31C48.2004 15.31 48.76 14.7504 48.76 14.06C48.76 13.3696 48.2004 12.81 47.51 12.81C46.8197 12.81 46.26 13.3696 46.26 14.06C46.26 14.7504 46.8197 15.31 47.51 15.31Z" fill="black"/>
<path d="M4.85999 38.49C5.55034 38.49 6.10999 37.9304 6.10999 37.24C6.10999 36.5496 5.55034 35.99 4.85999 35.99C4.16963 35.99 3.60999 36.5496 3.60999 37.24C3.60999 37.9304 4.16963 38.49 4.85999 38.49Z" fill="black"/>
<path d="M49.19 5.89L49.5 6.06C49.65 6.15319 49.8234 6.20175 50 6.2C50.2214 6.20155 50.4371 6.12957 50.6132 5.99534C50.7893 5.86112 50.9158 5.67224 50.973 5.45833C51.0302 5.24442 51.0148 5.01758 50.9292 4.81338C50.8436 4.60918 50.6926 4.43916 50.5 4.33L50.19 4.16C49.9616 4.02879 49.6906 3.993 49.436 4.0604C49.1813 4.12781 48.9636 4.29297 48.83 4.52C48.7634 4.63354 48.72 4.75909 48.7021 4.88946C48.6841 5.01983 48.6921 5.15246 48.7256 5.27973C48.759 5.40701 48.8173 5.52643 48.897 5.63115C48.9766 5.73587 49.0762 5.82384 49.19 5.89Z" fill="black"/>
<path d="M44.2901 1.9C44.2235 2.01354 44.1801 2.13909 44.1621 2.26946C44.1442 2.39983 44.1522 2.53245 44.1857 2.65973C44.2191 2.787 44.2773 2.90642 44.357 3.01115C44.4367 3.11587 44.5363 3.20384 44.6501 3.27L44.9601 3.44C45.1115 3.52987 45.284 3.57817 45.4601 3.58C45.685 3.59105 45.9071 3.52584 46.0904 3.39492C46.2737 3.26399 46.4074 3.07503 46.4699 2.85864C46.5324 2.64224 46.52 2.41109 46.4347 2.20262C46.3494 1.99415 46.1963 1.82057 46.0001 1.71L45.6901 1.53C45.5747 1.45908 45.4462 1.41233 45.3122 1.39257C45.1783 1.37281 45.0417 1.38046 44.9108 1.41506C44.7799 1.44966 44.6574 1.51048 44.5507 1.59384C44.444 1.67719 44.3553 1.78135 44.2901 1.9Z" fill="black"/>
<path d="M45 4.16L44.69 4.33C44.4973 4.43916 44.3464 4.60918 44.2608 4.81338C44.1751 5.01758 44.1597 5.24442 44.2169 5.45833C44.2741 5.67224 44.4007 5.86112 44.5768 5.99534C44.7529 6.12957 44.9686 6.20155 45.19 6.2C45.3668 6.20347 45.5407 6.15478 45.69 6.06L46 5.89C46.1137 5.82384 46.2133 5.73587 46.293 5.63115C46.3727 5.52643 46.4309 5.40701 46.4644 5.27973C46.4978 5.15246 46.5058 5.01983 46.4879 4.88946C46.47 4.75909 46.4265 4.63354 46.36 4.52C46.2264 4.29297 46.0086 4.12781 45.754 4.0604C45.4993 3.993 45.2284 4.02879 45 4.16Z" fill="black"/>
<path d="M49.69 3.58C49.8661 3.57817 50.0385 3.52987 50.19 3.44L50.5 3.27C50.6142 3.20434 50.7144 3.11681 50.7948 3.01243C50.8753 2.90805 50.9343 2.78884 50.9687 2.66163C51.0031 2.53441 51.012 2.40167 50.9951 2.27099C50.9781 2.14031 50.9356 2.01425 50.87 1.9C50.8043 1.78575 50.7168 1.68555 50.6124 1.60512C50.508 1.5247 50.3888 1.46562 50.2616 1.43126C50.1344 1.3969 50.0016 1.38794 49.871 1.40488C49.7403 1.42182 49.6142 1.46434 49.5 1.53L49.19 1.71C49.0762 1.77616 48.9766 1.86412 48.897 1.96885C48.8173 2.07357 48.759 2.19299 48.7256 2.32027C48.6921 2.44754 48.6841 2.58017 48.7021 2.71054C48.72 2.84091 48.7634 2.96646 48.83 3.08C48.9172 3.23113 49.0425 3.35681 49.1934 3.44452C49.3443 3.53224 49.5155 3.57894 49.69 3.58Z" fill="black"/>
<path d="M47.58 5.25C47.3147 5.25 47.0604 5.35536 46.8728 5.54289C46.6853 5.73043 46.58 5.98478 46.58 6.25V6.61C46.58 6.87522 46.6853 7.12957 46.8728 7.31711C47.0604 7.50464 47.3147 7.61 47.58 7.61C47.8452 7.61 48.0995 7.50464 48.2871 7.31711C48.4746 7.12957 48.58 6.87522 48.58 6.61V6.26C48.5813 6.12784 48.5564 5.99673 48.5067 5.87424C48.4571 5.75176 48.3836 5.64034 48.2906 5.54642C48.1976 5.4525 48.0869 5.37794 47.965 5.32707C47.843 5.27619 47.7121 5.24999 47.58 5.25Z" fill="black"/>
<path d="M47.58 0C47.3147 0 47.0604 0.105357 46.8728 0.292893C46.6853 0.48043 46.58 0.734784 46.58 1V1.35C46.58 1.61522 46.6853 1.86957 46.8728 2.05711C47.0604 2.24464 47.3147 2.35 47.58 2.35C47.8452 2.35 48.0995 2.24464 48.2871 2.05711C48.4746 1.86957 48.58 1.61522 48.58 1.35V1C48.58 0.734784 48.4746 0.48043 48.2871 0.292893C48.0995 0.105357 47.8452 0 47.58 0Z" fill="black"/>
</svg>
