<svg width="62" height="56" viewBox="0 0 62 56" fill="none" xmlns="http://www.w3.org/2000/svg">
<path d="M53.93 34.1L49.68 12.55C49.6323 12.2249 49.521 11.9124 49.3524 11.6303C49.1838 11.3482 48.9612 11.1022 48.6974 10.9062C48.4337 10.7103 48.1338 10.5682 47.8151 10.4882C47.4964 10.4082 47.1651 10.3918 46.84 10.44C46.1852 10.5387 45.5963 10.8932 45.2026 11.4257C44.8089 11.9581 44.6425 12.625 44.74 13.28L47.61 32.57L53.93 34.1Z" fill="#FFD578" stroke="black" stroke-width="2" stroke-linecap="round" stroke-linejoin="round"/>
<path d="M56.93 29.1L52.68 7.55C52.6323 7.22488 52.521 6.91236 52.3524 6.6303C52.1838 6.34825 51.9612 6.1022 51.6974 5.90623C51.4337 5.71026 51.1338 5.56821 50.8151 5.48821C50.4964 5.40821 50.1651 5.39183 49.84 5.44C49.1852 5.53874 48.5963 5.89323 48.2026 6.42568C47.8089 6.95812 47.6425 7.62502 47.74 8.28L50.61 27.57L56.93 29.1Z" fill="#FFD578" stroke="black" stroke-width="2" stroke-linecap="round" stroke-linejoin="round"/>
<path d="M8.31006 34.1L12.5601 12.55C12.6078 12.2249 12.7191 11.9124 12.8877 11.6303C13.0563 11.3482 13.2789 11.1022 13.5426 10.9062C13.8064 10.7103 14.1062 10.5682 14.4249 10.4882C14.7436 10.4082 15.075 10.3918 15.4001 10.44C16.0549 10.5387 16.6437 10.8932 17.0374 11.4257C17.4311 11.9581 17.5975 12.625 17.5001 13.28L14.6301 32.57L8.31006 34.1Z" fill="#FFD578" stroke="black" stroke-width="2" stroke-linecap="round" stroke-linejoin="round"/>
<path d="M5.31006 29.1L9.56006 7.55C9.60777 7.22488 9.71911 6.91236 9.88771 6.6303C10.0563 6.34825 10.2789 6.1022 10.5426 5.90623C10.8064 5.71026 11.1062 5.56821 11.4249 5.48821C11.7436 5.40821 12.075 5.39183 12.4001 5.44C13.0549 5.53874 13.6437 5.89323 14.0374 6.42568C14.4311 6.95812 14.5975 7.62502 14.5001 8.28L11.6301 27.57L5.31006 29.1Z" fill="#FFD578" stroke="black" stroke-width="2" stroke-linecap="round" stroke-linejoin="round"/>
<path d="M47.24 10C45.4734 8.23398 43.0778 7.24189 40.58 7.24189C38.0821 7.24189 35.6865 8.23398 33.92 10L31.31 12.6L28.7 10C26.9055 8.41413 24.5743 7.57128 22.1806 7.64283C19.7868 7.71438 17.5102 8.69496 15.8136 10.3852C14.117 12.0754 13.1279 14.3483 13.0473 16.7418C12.9668 19.1353 13.8009 21.4695 15.38 23.27L18 25.88L31.31 39.2L44.63 25.88L47.24 23.27C48.9907 21.5056 49.9732 19.1206 49.9732 16.635C49.9732 14.1493 48.9907 11.7644 47.24 10Z" fill="#FF927D" stroke="black" stroke-width="2" stroke-linecap="round" stroke-linejoin="round"/>
<path d="M54.35 1.12C53.6868 1.11995 53.0503 1.38133 52.5786 1.84745C52.1069 2.31357 51.8379 2.94687 51.83 3.61L54 22L44.06 37.12L40.65 32.38L42.24 28.71C42.4996 28.1066 42.6377 27.458 42.6465 26.8012C42.6553 26.1444 42.5346 25.4923 42.2913 24.8822C42.0479 24.272 41.6868 23.7158 41.2285 23.2453C40.7701 22.7748 40.2235 22.3992 39.62 22.14L34.87 33.14L39 51.29L50.47 47.5L55.87 40L58.87 33C60.4958 29.2093 60.7918 24.9802 59.71 21L56.83 3.64C56.8326 3.31169 56.7706 2.98608 56.6474 2.68176C56.5242 2.37743 56.3422 2.10036 56.1119 1.86635C55.8816 1.63235 55.6075 1.44599 55.3052 1.31793C55.0029 1.18987 54.6783 1.12261 54.35 1.12Z" fill="#FFD578" stroke="black" stroke-width="2" stroke-linecap="round" stroke-linejoin="round"/>
<path d="M53 47H36V55H53V47Z" fill="white" stroke="black" stroke-width="2" stroke-linecap="round" stroke-linejoin="round"/>
<path d="M48.72 52.97C49.8245 52.97 50.72 52.0746 50.72 50.97C50.72 49.8654 49.8245 48.97 48.72 48.97C47.6154 48.97 46.72 49.8654 46.72 50.97C46.72 52.0746 47.6154 52.97 48.72 52.97Z" fill="black"/>
<path d="M7.89001 1.12C8.55319 1.11995 9.18965 1.38133 9.66139 1.84745C10.1331 2.31357 10.4021 2.94687 10.41 3.61L8.00001 22L18.18 37.12L21.59 32.38L20 28.71C19.7404 28.1066 19.6023 27.458 19.5935 26.8012C19.5847 26.1444 19.7054 25.4923 19.9487 24.8822C20.1921 24.272 20.5532 23.7158 21.0115 23.2453C21.4699 22.7748 22.0165 22.3992 22.62 22.14L27.37 33.14L23.2 51.29L11.77 47.5L6.37001 40L3.37001 33C1.74421 29.2093 1.44817 24.9802 2.53001 21L5.41001 3.64C5.40737 3.31169 5.46942 2.98608 5.59263 2.68176C5.71584 2.37743 5.89778 2.10036 6.12807 1.86635C6.35836 1.63235 6.63249 1.44599 6.93481 1.31793C7.23712 1.18987 7.5617 1.12261 7.89001 1.12Z" fill="#FFD578" stroke="black" stroke-width="2" stroke-linecap="round" stroke-linejoin="round"/>
<path d="M9.23999 55H26.24V47H9.23999V55Z" fill="white" stroke="black" stroke-width="2" stroke-linecap="round" stroke-linejoin="round"/>
<path d="M13.52 52.97C14.6246 52.97 15.52 52.0746 15.52 50.97C15.52 49.8654 14.6246 48.97 13.52 48.97C12.4154 48.97 11.52 49.8654 11.52 50.97C11.52 52.0746 12.4154 52.97 13.52 52.97Z" fill="black"/>
<path d="M25.86 20.07C26.5424 20.7215 27.3496 21.2283 28.2329 21.56C29.1162 21.8916 30.0574 22.0413 31 22C31.9339 22.0399 32.8663 21.8923 33.7422 21.5659C34.6181 21.2396 35.4198 20.7412 36.1 20.1" stroke="black" stroke-width="2" stroke-linecap="round" stroke-linejoin="round"/>
<path d="M22 17C23.1046 17 24 16.1046 24 15C24 13.8954 23.1046 13 22 13C20.8954 13 20 13.8954 20 15C20 16.1046 20.8954 17 22 17Z" fill="black"/>
<path d="M40 17C41.1046 17 42 16.1046 42 15C42 13.8954 41.1046 13 40 13C38.8954 13 38 13.8954 38 15C38 16.1046 38.8954 17 40 17Z" fill="black"/>
</svg>
