<svg width="147" height="59" viewBox="0 0 147 59" fill="none" xmlns="http://www.w3.org/2000/svg">
<circle cx="28" cy="16" r="16" fill="#B3B3B3"/>
<path d="M29.0767 10.3636V22H27.6676V11.8409H27.5994L24.7585 13.7273V12.2955L27.6676 10.3636H29.0767Z" fill="white"/>
<line x1="44" y1="15.5" x2="99" y2="15.5" stroke="#B3B3B3"/>
<circle cx="115.077" cy="16" r="16" fill="#1A98FF"/>
<path d="M110.861 22V20.9773L114.702 16.7727C115.152 16.2803 115.524 15.8523 115.815 15.4886C116.107 15.1212 116.323 14.7765 116.463 14.4545C116.607 14.1288 116.679 13.7879 116.679 13.4318C116.679 13.0227 116.58 12.6686 116.384 12.3693C116.19 12.0701 115.925 11.839 115.588 11.6761C115.251 11.5133 114.872 11.4318 114.452 11.4318C114.005 11.4318 113.615 11.5246 113.281 11.7102C112.952 11.892 112.696 12.1477 112.514 12.4773C112.336 12.8068 112.247 13.1932 112.247 13.6364H110.906C110.906 12.9545 111.063 12.3561 111.378 11.8409C111.692 11.3258 112.12 10.9242 112.662 10.6364C113.207 10.3485 113.819 10.2045 114.497 10.2045C115.179 10.2045 115.783 10.3485 116.31 10.6364C116.836 10.9242 117.249 11.3125 117.548 11.8011C117.848 12.2898 117.997 12.8333 117.997 13.4318C117.997 13.8598 117.92 14.2784 117.764 14.6875C117.613 15.0928 117.348 15.5455 116.969 16.0455C116.594 16.5417 116.073 17.1477 115.406 17.8636L112.793 20.6591V20.75H118.202V22H110.861Z" fill="white"/>
<path d="M14.9912 44H13.5068L13.5166 43.2334H14.9912C15.499 43.2334 15.9222 43.1276 16.2607 42.916C16.5993 42.7012 16.8532 42.4017 17.0225 42.0176C17.195 41.6302 17.2812 41.1777 17.2812 40.6602V40.2256C17.2812 39.8187 17.2324 39.4574 17.1348 39.1416C17.0371 38.8226 16.8939 38.554 16.7051 38.3359C16.5163 38.1146 16.2852 37.9469 16.0117 37.833C15.7415 37.7191 15.4307 37.6621 15.0791 37.6621H13.4775V36.8906H15.0791C15.5446 36.8906 15.9694 36.9688 16.3535 37.125C16.7376 37.278 17.068 37.501 17.3447 37.7939C17.6247 38.0837 17.8395 38.4352 17.9893 38.8486C18.139 39.2588 18.2139 39.721 18.2139 40.2354V40.6602C18.2139 41.1745 18.139 41.6383 17.9893 42.0518C17.8395 42.4619 17.623 42.8118 17.3398 43.1016C17.0599 43.3913 16.7214 43.6143 16.3242 43.7705C15.9303 43.9235 15.486 44 14.9912 44ZM14.0098 36.8906V44H13.0674V36.8906H14.0098ZM23.0084 43.0967V40.377C23.0084 40.1686 22.9661 39.988 22.8814 39.835C22.8001 39.6787 22.6764 39.5583 22.5104 39.4736C22.3443 39.389 22.1393 39.3467 21.8951 39.3467C21.6673 39.3467 21.4671 39.3857 21.2945 39.4639C21.1253 39.542 20.9918 39.6445 20.8941 39.7715C20.7997 39.8984 20.7525 40.0352 20.7525 40.1816H19.8492C19.8492 39.9928 19.898 39.8057 19.9957 39.6201C20.0934 39.4346 20.2333 39.2669 20.4156 39.1172C20.6012 38.9642 20.8225 38.8438 21.0797 38.7559C21.3401 38.6647 21.6298 38.6191 21.9488 38.6191C22.3329 38.6191 22.6715 38.6842 22.9645 38.8145C23.2607 38.9447 23.4918 39.1416 23.6578 39.4053C23.8271 39.6657 23.9117 39.9928 23.9117 40.3867V42.8477C23.9117 43.0234 23.9264 43.2106 23.9557 43.4092C23.9882 43.6077 24.0354 43.7786 24.0973 43.9219V44H23.1549C23.1093 43.8958 23.0735 43.7575 23.0475 43.585C23.0214 43.4092 23.0084 43.2464 23.0084 43.0967ZM23.1646 40.7969L23.1744 41.4316H22.2613C22.0042 41.4316 21.7747 41.4528 21.5729 41.4951C21.371 41.5342 21.2018 41.5944 21.065 41.6758C20.9283 41.7572 20.8242 41.8597 20.7525 41.9834C20.6809 42.1038 20.6451 42.2454 20.6451 42.4082C20.6451 42.5742 20.6826 42.7256 20.7574 42.8623C20.8323 42.999 20.9446 43.1081 21.0943 43.1895C21.2473 43.2676 21.4345 43.3066 21.6559 43.3066C21.9326 43.3066 22.1767 43.248 22.3883 43.1309C22.5999 43.0137 22.7675 42.8704 22.8912 42.7012C23.0182 42.5319 23.0865 42.3675 23.0963 42.208L23.482 42.6426C23.4592 42.7793 23.3974 42.9307 23.2965 43.0967C23.1956 43.2627 23.0605 43.4222 22.8912 43.5752C22.7252 43.7249 22.5266 43.8503 22.2955 43.9512C22.0676 44.0488 21.8105 44.0977 21.524 44.0977C21.166 44.0977 20.8518 44.0277 20.5816 43.8877C20.3147 43.7477 20.1064 43.5605 19.9566 43.3262C19.8102 43.0885 19.7369 42.8232 19.7369 42.5303C19.7369 42.2471 19.7923 41.998 19.9029 41.7832C20.0136 41.5651 20.1731 41.3844 20.3814 41.2412C20.5898 41.0947 20.8404 40.984 21.1334 40.9092C21.4264 40.8343 21.7535 40.7969 22.1148 40.7969H23.1646ZM29.0627 42.9746V36.5H29.9709V44H29.1408L29.0627 42.9746ZM25.508 41.417V41.3145C25.508 40.9108 25.5568 40.5446 25.6545 40.2158C25.7554 39.8838 25.897 39.599 26.0793 39.3613C26.2648 39.1237 26.4846 38.9414 26.7385 38.8145C26.9956 38.6842 27.2821 38.6191 27.5979 38.6191C27.9299 38.6191 28.2196 38.6777 28.467 38.7949C28.7176 38.9089 28.9292 39.0765 29.1018 39.2979C29.2775 39.516 29.4159 39.7796 29.5168 40.0889C29.6177 40.3981 29.6877 40.748 29.7268 41.1387V41.5879C29.6909 41.9753 29.621 42.3236 29.5168 42.6328C29.4159 42.9421 29.2775 43.2057 29.1018 43.4238C28.9292 43.6419 28.7176 43.8096 28.467 43.9268C28.2163 44.0407 27.9234 44.0977 27.5881 44.0977C27.2788 44.0977 26.9956 44.0309 26.7385 43.8975C26.4846 43.764 26.2648 43.5768 26.0793 43.3359C25.897 43.0951 25.7554 42.8118 25.6545 42.4863C25.5568 42.1576 25.508 41.8011 25.508 41.417ZM26.4162 41.3145V41.417C26.4162 41.6807 26.4423 41.9281 26.4943 42.1592C26.5497 42.3903 26.6343 42.5938 26.7482 42.7695C26.8622 42.9453 27.007 43.0837 27.1828 43.1846C27.3586 43.2822 27.5686 43.3311 27.8127 43.3311C28.1122 43.3311 28.3579 43.2676 28.55 43.1406C28.7453 43.0137 28.9016 42.846 29.0187 42.6377C29.1359 42.4294 29.2271 42.2031 29.2922 41.959V40.7822C29.2531 40.6032 29.1962 40.4307 29.1213 40.2646C29.0497 40.0954 28.9553 39.9456 28.8381 39.8154C28.7242 39.682 28.5826 39.5762 28.4133 39.498C28.2473 39.4199 28.0503 39.3809 27.8225 39.3809C27.5751 39.3809 27.3618 39.4329 27.1828 39.5371C27.007 39.638 26.8622 39.778 26.7482 39.957C26.6343 40.1328 26.5497 40.3379 26.4943 40.5723C26.4423 40.8034 26.4162 41.0508 26.4162 41.3145ZM31.5379 41.417V41.3047C31.5379 40.9238 31.5932 40.5706 31.7039 40.2451C31.8146 39.9163 31.9741 39.6315 32.1824 39.3906C32.3908 39.1465 32.643 38.9577 32.9393 38.8242C33.2355 38.6875 33.5675 38.6191 33.9354 38.6191C34.3064 38.6191 34.6401 38.6875 34.9363 38.8242C35.2358 38.9577 35.4897 39.1465 35.698 39.3906C35.9096 39.6315 36.0708 39.9163 36.1814 40.2451C36.2921 40.5706 36.3475 40.9238 36.3475 41.3047V41.417C36.3475 41.7979 36.2921 42.151 36.1814 42.4766C36.0708 42.8021 35.9096 43.0869 35.698 43.3311C35.4897 43.5719 35.2374 43.7607 34.9412 43.8975C34.6482 44.0309 34.3162 44.0977 33.9451 44.0977C33.574 44.0977 33.2404 44.0309 32.9441 43.8975C32.6479 43.7607 32.394 43.5719 32.1824 43.3311C31.9741 43.0869 31.8146 42.8021 31.7039 42.4766C31.5932 42.151 31.5379 41.7979 31.5379 41.417ZM32.4412 41.3047V41.417C32.4412 41.6807 32.4721 41.9297 32.534 42.1641C32.5958 42.3952 32.6886 42.6003 32.8123 42.7793C32.9393 42.9583 33.0971 43.0999 33.2859 43.2041C33.4747 43.305 33.6945 43.3555 33.9451 43.3555C34.1925 43.3555 34.409 43.305 34.5945 43.2041C34.7833 43.0999 34.9396 42.9583 35.0633 42.7793C35.187 42.6003 35.2798 42.3952 35.3416 42.1641C35.4067 41.9297 35.4393 41.6807 35.4393 41.417V41.3047C35.4393 41.0443 35.4067 40.7985 35.3416 40.5674C35.2798 40.333 35.1854 40.1263 35.0584 39.9473C34.9347 39.765 34.7785 39.6217 34.5896 39.5176C34.4041 39.4134 34.186 39.3613 33.9354 39.3613C33.688 39.3613 33.4699 39.4134 33.2811 39.5176C33.0955 39.6217 32.9393 39.765 32.8123 39.9473C32.6886 40.1263 32.5958 40.333 32.534 40.5674C32.4721 40.7985 32.4412 41.0443 32.4412 41.3047ZM40.9564 42.5986C40.9564 42.4684 40.9271 42.348 40.8686 42.2373C40.8132 42.1234 40.6977 42.0208 40.5219 41.9297C40.3493 41.8353 40.0889 41.7539 39.7406 41.6855C39.4477 41.6237 39.1824 41.5505 38.9447 41.4658C38.7104 41.3812 38.5102 41.2786 38.3441 41.1582C38.1814 41.0378 38.0561 40.8962 37.9682 40.7334C37.8803 40.5706 37.8363 40.3802 37.8363 40.1621C37.8363 39.9538 37.8819 39.7568 37.973 39.5713C38.0674 39.3857 38.1993 39.2214 38.3686 39.0781C38.5411 38.9349 38.7478 38.8226 38.9887 38.7412C39.2296 38.6598 39.4981 38.6191 39.7943 38.6191C40.2175 38.6191 40.5788 38.694 40.8783 38.8438C41.1778 38.9935 41.4073 39.1937 41.5668 39.4443C41.7263 39.6917 41.8061 39.9668 41.8061 40.2695H40.9027C40.9027 40.123 40.8588 39.9814 40.7709 39.8447C40.6863 39.7048 40.5609 39.5892 40.3949 39.498C40.2322 39.4069 40.032 39.3613 39.7943 39.3613C39.5437 39.3613 39.3402 39.4004 39.184 39.4785C39.031 39.5534 38.9187 39.6494 38.8471 39.7666C38.7787 39.8838 38.7445 40.0075 38.7445 40.1377C38.7445 40.2354 38.7608 40.3232 38.7934 40.4014C38.8292 40.4762 38.891 40.5462 38.9789 40.6113C39.0668 40.6732 39.1905 40.7318 39.35 40.7871C39.5095 40.8424 39.713 40.8978 39.9604 40.9531C40.3933 41.0508 40.7497 41.168 41.0297 41.3047C41.3096 41.4414 41.518 41.609 41.6547 41.8076C41.7914 42.0062 41.8598 42.2471 41.8598 42.5303C41.8598 42.7614 41.8109 42.973 41.7133 43.165C41.6189 43.3571 41.4805 43.5231 41.2982 43.6631C41.1192 43.7998 40.9044 43.9072 40.6537 43.9854C40.4063 44.0602 40.128 44.0977 39.8187 44.0977C39.3533 44.0977 38.9594 44.0146 38.6371 43.8486C38.3148 43.6826 38.0707 43.4678 37.9047 43.2041C37.7387 42.9404 37.6557 42.6621 37.6557 42.3691H38.5639C38.5769 42.6165 38.6485 42.8135 38.7787 42.96C38.9089 43.1032 39.0684 43.2057 39.2572 43.2676C39.446 43.3262 39.6332 43.3555 39.8187 43.3555C40.0661 43.3555 40.2729 43.3229 40.4389 43.2578C40.6081 43.1927 40.7367 43.1032 40.8246 42.9893C40.9125 42.8753 40.9564 42.7451 40.9564 42.5986ZM7.69668 51.7324V58.0312H6.78848V50.7168H7.61856L7.69668 51.7324ZM11.2563 53.3145V53.417C11.2563 53.8011 11.2107 54.1576 11.1195 54.4863C11.0284 54.8118 10.8949 55.0951 10.7191 55.3359C10.5466 55.5768 10.3334 55.764 10.0795 55.8975C9.82559 56.0309 9.53425 56.0977 9.20547 56.0977C8.87018 56.0977 8.57396 56.0423 8.3168 55.9316C8.05964 55.821 7.84154 55.6598 7.6625 55.4482C7.48346 55.2367 7.34023 54.9827 7.23281 54.6865C7.12865 54.3903 7.05703 54.0566 7.01797 53.6855V53.1387C7.05703 52.748 7.13027 52.3981 7.2377 52.0889C7.34512 51.7796 7.48672 51.516 7.6625 51.2979C7.84154 51.0765 8.05801 50.9089 8.31191 50.7949C8.56582 50.6777 8.85879 50.6191 9.19082 50.6191C9.52285 50.6191 9.81745 50.6842 10.0746 50.8145C10.3318 50.9414 10.5482 51.1237 10.724 51.3613C10.8998 51.599 11.0316 51.8838 11.1195 52.2158C11.2107 52.5446 11.2563 52.9108 11.2563 53.3145ZM10.348 53.417V53.3145C10.348 53.0508 10.3204 52.8034 10.265 52.5723C10.2097 52.3379 10.1234 52.1328 10.0063 51.957C9.89232 51.778 9.74583 51.638 9.5668 51.5371C9.38776 51.4329 9.17454 51.3809 8.92715 51.3809C8.69928 51.3809 8.50072 51.4199 8.33145 51.498C8.16543 51.5762 8.02383 51.682 7.90664 51.8154C7.78945 51.9456 7.69342 52.0954 7.61856 52.2646C7.54694 52.4307 7.49323 52.6032 7.45742 52.7822V54.0469C7.52253 54.2747 7.61367 54.4896 7.73086 54.6914C7.84805 54.89 8.0043 55.0511 8.19961 55.1748C8.39492 55.2952 8.64069 55.3555 8.93691 55.3555C9.18106 55.3555 9.39102 55.305 9.5668 55.2041C9.74583 55.0999 9.89232 54.9583 10.0063 54.7793C10.1234 54.6003 10.2097 54.3952 10.265 54.1641C10.3204 53.9297 10.348 53.6807 10.348 53.417ZM15.001 56.0977C14.6331 56.0977 14.2995 56.0358 14 55.9121C13.7038 55.7852 13.4482 55.6077 13.2334 55.3799C13.0218 55.152 12.859 54.8818 12.7451 54.5693C12.6312 54.2568 12.5742 53.915 12.5742 53.5439V53.3389C12.5742 52.9092 12.6377 52.5267 12.7646 52.1914C12.8916 51.8529 13.0641 51.5664 13.2822 51.332C13.5003 51.0977 13.7477 50.9202 14.0244 50.7998C14.3011 50.6794 14.5876 50.6191 14.8838 50.6191C15.2614 50.6191 15.5869 50.6842 15.8604 50.8145C16.137 50.9447 16.3633 51.127 16.5391 51.3613C16.7148 51.5924 16.8451 51.8659 16.9297 52.1816C17.0143 52.4941 17.0566 52.8359 17.0566 53.207V53.6123H13.1113V52.875H16.1533V52.8066C16.1403 52.5723 16.0915 52.3444 16.0068 52.123C15.9255 51.9017 15.7952 51.7194 15.6162 51.5762C15.4372 51.4329 15.193 51.3613 14.8838 51.3613C14.6787 51.3613 14.4899 51.4053 14.3174 51.4932C14.1449 51.5778 13.9967 51.7048 13.873 51.874C13.7493 52.0433 13.6533 52.25 13.585 52.4941C13.5166 52.7383 13.4824 53.0199 13.4824 53.3389V53.5439C13.4824 53.7946 13.5166 54.0306 13.585 54.252C13.6566 54.4701 13.7591 54.6621 13.8926 54.8281C14.0293 54.9941 14.1937 55.1243 14.3857 55.2188C14.5811 55.3132 14.8024 55.3604 15.0498 55.3604C15.3688 55.3604 15.639 55.2952 15.8604 55.165C16.0817 55.0348 16.2754 54.8607 16.4414 54.6426L16.9883 55.0771C16.8743 55.2497 16.7295 55.4141 16.5537 55.5703C16.3779 55.7266 16.1615 55.8535 15.9043 55.9512C15.6504 56.0488 15.3493 56.0977 15.001 56.0977ZM21.5875 54.5986C21.5875 54.4684 21.5582 54.348 21.4996 54.2373C21.4443 54.1234 21.3287 54.0208 21.1529 53.9297C20.9804 53.8353 20.72 53.7539 20.3717 53.6855C20.0787 53.6237 19.8134 53.5505 19.5758 53.4658C19.3414 53.3812 19.1412 53.2786 18.9752 53.1582C18.8124 53.0378 18.6871 52.8962 18.5992 52.7334C18.5113 52.5706 18.4674 52.3802 18.4674 52.1621C18.4674 51.9538 18.513 51.7568 18.6041 51.5713C18.6985 51.3857 18.8303 51.2214 18.9996 51.0781C19.1721 50.9349 19.3788 50.8226 19.6197 50.7412C19.8606 50.6598 20.1292 50.6191 20.4254 50.6191C20.8486 50.6191 21.2099 50.694 21.5094 50.8438C21.8089 50.9935 22.0383 51.1937 22.1979 51.4443C22.3574 51.6917 22.4371 51.9668 22.4371 52.2695H21.5338C21.5338 52.123 21.4898 51.9814 21.402 51.8447C21.3173 51.7048 21.192 51.5892 21.026 51.498C20.8632 51.4069 20.663 51.3613 20.4254 51.3613C20.1747 51.3613 19.9713 51.4004 19.815 51.4785C19.662 51.5534 19.5497 51.6494 19.4781 51.7666C19.4098 51.8838 19.3756 52.0075 19.3756 52.1377C19.3756 52.2354 19.3919 52.3232 19.4244 52.4014C19.4602 52.4762 19.5221 52.5462 19.61 52.6113C19.6979 52.6732 19.8216 52.7318 19.9811 52.7871C20.1406 52.8424 20.344 52.8978 20.5914 52.9531C21.0244 53.0508 21.3808 53.168 21.6607 53.3047C21.9407 53.4414 22.149 53.609 22.2857 53.8076C22.4225 54.0062 22.4908 54.2471 22.4908 54.5303C22.4908 54.7614 22.442 54.973 22.3443 55.165C22.2499 55.3571 22.1116 55.5231 21.9293 55.6631C21.7503 55.7998 21.5354 55.9072 21.2848 55.9854C21.0374 56.0602 20.7591 56.0977 20.4498 56.0977C19.9843 56.0977 19.5904 56.0146 19.2682 55.8486C18.9459 55.6826 18.7018 55.4678 18.5357 55.2041C18.3697 54.9404 18.2867 54.6621 18.2867 54.3691H19.1949C19.2079 54.6165 19.2796 54.8135 19.4098 54.96C19.54 55.1032 19.6995 55.2057 19.8883 55.2676C20.0771 55.3262 20.2643 55.3555 20.4498 55.3555C20.6972 55.3555 20.9039 55.3229 21.0699 55.2578C21.2392 55.1927 21.3678 55.1032 21.4557 54.9893C21.5436 54.8753 21.5875 54.7451 21.5875 54.5986ZM27.1535 54.5986C27.1535 54.4684 27.1242 54.348 27.0656 54.2373C27.0103 54.1234 26.8947 54.0208 26.7189 53.9297C26.5464 53.8353 26.286 53.7539 25.9377 53.6855C25.6447 53.6237 25.3794 53.5505 25.1418 53.4658C24.9074 53.3812 24.7072 53.2786 24.5412 53.1582C24.3785 53.0378 24.2531 52.8962 24.1652 52.7334C24.0773 52.5706 24.0334 52.3802 24.0334 52.1621C24.0334 51.9538 24.079 51.7568 24.1701 51.5713C24.2645 51.3857 24.3964 51.2214 24.5656 51.0781C24.7382 50.9349 24.9449 50.8226 25.1857 50.7412C25.4266 50.6598 25.6952 50.6191 25.9914 50.6191C26.4146 50.6191 26.7759 50.694 27.0754 50.8438C27.3749 50.9935 27.6044 51.1937 27.7639 51.4443C27.9234 51.6917 28.0031 51.9668 28.0031 52.2695H27.0998C27.0998 52.123 27.0559 51.9814 26.968 51.8447C26.8833 51.7048 26.758 51.5892 26.592 51.498C26.4292 51.4069 26.229 51.3613 25.9914 51.3613C25.7408 51.3613 25.5373 51.4004 25.3811 51.4785C25.2281 51.5534 25.1158 51.6494 25.0441 51.7666C24.9758 51.8838 24.9416 52.0075 24.9416 52.1377C24.9416 52.2354 24.9579 52.3232 24.9904 52.4014C25.0262 52.4762 25.0881 52.5462 25.176 52.6113C25.2639 52.6732 25.3876 52.7318 25.5471 52.7871C25.7066 52.8424 25.91 52.8978 26.1574 52.9531C26.5904 53.0508 26.9468 53.168 27.2268 53.3047C27.5067 53.4414 27.715 53.609 27.8518 53.8076C27.9885 54.0062 28.0568 54.2471 28.0568 54.5303C28.0568 54.7614 28.008 54.973 27.9104 55.165C27.816 55.3571 27.6776 55.5231 27.4953 55.6631C27.3163 55.7998 27.1014 55.9072 26.8508 55.9854C26.6034 56.0602 26.3251 56.0977 26.0158 56.0977C25.5503 56.0977 25.1564 56.0146 24.8342 55.8486C24.5119 55.6826 24.2678 55.4678 24.1018 55.2041C23.9357 54.9404 23.8527 54.6621 23.8527 54.3691H24.7609C24.774 54.6165 24.8456 54.8135 24.9758 54.96C25.106 55.1032 25.2655 55.2057 25.4543 55.2676C25.6431 55.3262 25.8303 55.3555 26.0158 55.3555C26.2632 55.3555 26.4699 55.3229 26.6359 55.2578C26.8052 55.1927 26.9338 55.1032 27.0217 54.9893C27.1096 54.8753 27.1535 54.7451 27.1535 54.5986ZM29.4041 53.417V53.3047C29.4041 52.9238 29.4594 52.5706 29.5701 52.2451C29.6808 51.9163 29.8403 51.6315 30.0486 51.3906C30.257 51.1465 30.5092 50.9577 30.8055 50.8242C31.1017 50.6875 31.4337 50.6191 31.8016 50.6191C32.1727 50.6191 32.5063 50.6875 32.8025 50.8242C33.102 50.9577 33.3559 51.1465 33.5643 51.3906C33.7758 51.6315 33.937 51.9163 34.0477 52.2451C34.1583 52.5706 34.2137 52.9238 34.2137 53.3047V53.417C34.2137 53.7979 34.1583 54.151 34.0477 54.4766C33.937 54.8021 33.7758 55.0869 33.5643 55.3311C33.3559 55.5719 33.1036 55.7607 32.8074 55.8975C32.5145 56.0309 32.1824 56.0977 31.8113 56.0977C31.4402 56.0977 31.1066 56.0309 30.8104 55.8975C30.5141 55.7607 30.2602 55.5719 30.0486 55.3311C29.8403 55.0869 29.6808 54.8021 29.5701 54.4766C29.4594 54.151 29.4041 53.7979 29.4041 53.417ZM30.3074 53.3047V53.417C30.3074 53.6807 30.3383 53.9297 30.4002 54.1641C30.462 54.3952 30.5548 54.6003 30.6785 54.7793C30.8055 54.9583 30.9633 55.0999 31.1521 55.2041C31.341 55.305 31.5607 55.3555 31.8113 55.3555C32.0587 55.3555 32.2752 55.305 32.4607 55.2041C32.6495 55.0999 32.8058 54.9583 32.9295 54.7793C33.0532 54.6003 33.146 54.3952 33.2078 54.1641C33.2729 53.9297 33.3055 53.6807 33.3055 53.417V53.3047C33.3055 53.0443 33.2729 52.7985 33.2078 52.5674C33.146 52.333 33.0516 52.1263 32.9246 51.9473C32.8009 51.765 32.6447 51.6217 32.4559 51.5176C32.2703 51.4134 32.0522 51.3613 31.8016 51.3613C31.5542 51.3613 31.3361 51.4134 31.1473 51.5176C30.9617 51.6217 30.8055 51.765 30.6785 51.9473C30.5548 52.1263 30.462 52.333 30.4002 52.5674C30.3383 52.7985 30.3074 53.0443 30.3074 53.3047ZM38.8617 55.0967V52.377C38.8617 52.1686 38.8194 51.988 38.7348 51.835C38.6534 51.6787 38.5297 51.5583 38.3637 51.4736C38.1977 51.389 37.9926 51.3467 37.7484 51.3467C37.5206 51.3467 37.3204 51.3857 37.1479 51.4639C36.9786 51.542 36.8451 51.6445 36.7475 51.7715C36.6531 51.8984 36.6059 52.0352 36.6059 52.1816H35.7025C35.7025 51.9928 35.7514 51.8057 35.849 51.6201C35.9467 51.4346 36.0867 51.2669 36.2689 51.1172C36.4545 50.9642 36.6758 50.8438 36.933 50.7559C37.1934 50.6647 37.4831 50.6191 37.8021 50.6191C38.1863 50.6191 38.5248 50.6842 38.8178 50.8145C39.114 50.9447 39.3451 51.1416 39.5111 51.4053C39.6804 51.6657 39.765 51.9928 39.765 52.3867V54.8477C39.765 55.0234 39.7797 55.2106 39.809 55.4092C39.8415 55.6077 39.8887 55.7786 39.9506 55.9219V56H39.0082C38.9626 55.8958 38.9268 55.7575 38.9008 55.585C38.8747 55.4092 38.8617 55.2464 38.8617 55.0967ZM39.018 52.7969L39.0277 53.4316H38.1146C37.8575 53.4316 37.628 53.4528 37.4262 53.4951C37.2243 53.5342 37.0551 53.5944 36.9184 53.6758C36.7816 53.7572 36.6775 53.8597 36.6059 53.9834C36.5342 54.1038 36.4984 54.2454 36.4984 54.4082C36.4984 54.5742 36.5359 54.7256 36.6107 54.8623C36.6856 54.999 36.7979 55.1081 36.9477 55.1895C37.1006 55.2676 37.2878 55.3066 37.5092 55.3066C37.7859 55.3066 38.03 55.248 38.2416 55.1309C38.4532 55.0137 38.6208 54.8704 38.7445 54.7012C38.8715 54.5319 38.9398 54.3675 38.9496 54.208L39.3354 54.6426C39.3126 54.7793 39.2507 54.9307 39.1498 55.0967C39.0489 55.2627 38.9138 55.4222 38.7445 55.5752C38.5785 55.7249 38.3799 55.8503 38.1488 55.9512C37.921 56.0488 37.6638 56.0977 37.3773 56.0977C37.0193 56.0977 36.7051 56.0277 36.435 55.8877C36.168 55.7477 35.9597 55.5605 35.81 55.3262C35.6635 55.0885 35.5902 54.8232 35.5902 54.5303C35.5902 54.2471 35.6456 53.998 35.7562 53.7832C35.8669 53.5651 36.0264 53.3844 36.2348 53.2412C36.4431 53.0947 36.6937 52.984 36.9867 52.9092C37.2797 52.8343 37.6068 52.7969 37.9682 52.7969H39.018ZM42.5674 50.7168V56H41.6592V50.7168H42.5674ZM41.5908 49.3154C41.5908 49.1689 41.6348 49.0452 41.7227 48.9443C41.8138 48.8434 41.9473 48.793 42.123 48.793C42.2956 48.793 42.4274 48.8434 42.5186 48.9443C42.613 49.0452 42.6602 49.1689 42.6602 49.3154C42.6602 49.4554 42.613 49.5758 42.5186 49.6768C42.4274 49.7744 42.2956 49.8232 42.123 49.8232C41.9473 49.8232 41.8138 49.7744 41.7227 49.6768C41.6348 49.5758 41.5908 49.4554 41.5908 49.3154ZM47.4938 54.5986C47.4938 54.4684 47.4645 54.348 47.4059 54.2373C47.3505 54.1234 47.235 54.0208 47.0592 53.9297C46.8867 53.8353 46.6262 53.7539 46.2779 53.6855C45.985 53.6237 45.7197 53.5505 45.482 53.4658C45.2477 53.3812 45.0475 53.2786 44.8814 53.1582C44.7187 53.0378 44.5934 52.8962 44.5055 52.7334C44.4176 52.5706 44.3736 52.3802 44.3736 52.1621C44.3736 51.9538 44.4192 51.7568 44.5104 51.5713C44.6048 51.3857 44.7366 51.2214 44.9059 51.0781C45.0784 50.9349 45.2851 50.8226 45.526 50.7412C45.7669 50.6598 46.0354 50.6191 46.3316 50.6191C46.7548 50.6191 47.1161 50.694 47.4156 50.8438C47.7151 50.9935 47.9446 51.1937 48.1041 51.4443C48.2636 51.6917 48.3434 51.9668 48.3434 52.2695H47.44C47.44 52.123 47.3961 51.9814 47.3082 51.8447C47.2236 51.7048 47.0982 51.5892 46.9322 51.498C46.7695 51.4069 46.5693 51.3613 46.3316 51.3613C46.081 51.3613 45.8775 51.4004 45.7213 51.4785C45.5683 51.5534 45.456 51.6494 45.3844 51.7666C45.316 51.8838 45.2818 52.0075 45.2818 52.1377C45.2818 52.2354 45.2981 52.3232 45.3307 52.4014C45.3665 52.4762 45.4283 52.5462 45.5162 52.6113C45.6041 52.6732 45.7278 52.7318 45.8873 52.7871C46.0468 52.8424 46.2503 52.8978 46.4977 52.9531C46.9306 53.0508 47.287 53.168 47.567 53.3047C47.8469 53.4414 48.0553 53.609 48.192 53.8076C48.3287 54.0062 48.3971 54.2471 48.3971 54.5303C48.3971 54.7614 48.3482 54.973 48.2506 55.165C48.1562 55.3571 48.0178 55.5231 47.8355 55.6631C47.6565 55.7998 47.4417 55.9072 47.191 55.9854C46.9436 56.0602 46.6653 56.0977 46.3561 56.0977C45.8906 56.0977 45.4967 56.0146 45.1744 55.8486C44.8521 55.6826 44.608 55.4678 44.442 55.2041C44.276 54.9404 44.193 54.6621 44.193 54.3691H45.1012C45.1142 54.6165 45.1858 54.8135 45.316 54.96C45.4462 55.1032 45.6057 55.2057 45.7945 55.2676C45.9833 55.3262 46.1705 55.3555 46.3561 55.3555C46.6035 55.3555 46.8102 55.3229 46.9762 55.2578C47.1454 55.1927 47.274 55.1032 47.3619 54.9893C47.4498 54.8753 47.4938 54.7451 47.4938 54.5986Z" fill="#B3B3B3"/>
<path d="M87.6182 36.8906V44H86.6758V36.8906H87.6182ZM90.4986 39.8447V44H89.5953V38.7168H90.4498L90.4986 39.8447ZM90.2838 41.1582L89.9078 41.1436C89.9111 40.7822 89.9648 40.4486 90.0689 40.1426C90.1731 39.8333 90.3196 39.5648 90.5084 39.3369C90.6972 39.109 90.9218 38.9333 91.1822 38.8096C91.4459 38.6826 91.7372 38.6191 92.0563 38.6191C92.3167 38.6191 92.551 38.6549 92.7594 38.7266C92.9677 38.7949 93.1451 38.9056 93.2916 39.0586C93.4413 39.2116 93.5553 39.4102 93.6334 39.6543C93.7115 39.8952 93.7506 40.1898 93.7506 40.5381V44H92.8424V40.5283C92.8424 40.2516 92.8017 40.0303 92.7203 39.8643C92.6389 39.695 92.5201 39.5729 92.3639 39.498C92.2076 39.4199 92.0156 39.3809 91.7877 39.3809C91.5631 39.3809 91.358 39.4281 91.1725 39.5225C90.9902 39.6169 90.8323 39.7471 90.6988 39.9131C90.5686 40.0791 90.4661 40.2695 90.3912 40.4844C90.3196 40.696 90.2838 40.9206 90.2838 41.1582ZM96.8703 44H95.967V38.1602C95.967 37.7793 96.0354 37.4587 96.1721 37.1982C96.312 36.9346 96.5122 36.736 96.7727 36.6025C97.0331 36.4658 97.3423 36.3975 97.7004 36.3975C97.8046 36.3975 97.9087 36.404 98.0129 36.417C98.1203 36.43 98.2245 36.4495 98.3254 36.4756L98.2766 37.2129C98.2082 37.1966 98.1301 37.1852 98.0422 37.1787C97.9576 37.1722 97.8729 37.1689 97.7883 37.1689C97.5962 37.1689 97.4302 37.208 97.2902 37.2861C97.1535 37.361 97.0493 37.4717 96.9777 37.6182C96.9061 37.7646 96.8703 37.9453 96.8703 38.1602V44ZM97.9934 38.7168V39.4102H95.132V38.7168H97.9934ZM99.16 41.417V41.3047C99.16 40.9238 99.2153 40.5706 99.326 40.2451C99.4367 39.9163 99.5962 39.6315 99.8045 39.3906C100.013 39.1465 100.265 38.9577 100.561 38.8242C100.858 38.6875 101.19 38.6191 101.557 38.6191C101.929 38.6191 102.262 38.6875 102.558 38.8242C102.858 38.9577 103.112 39.1465 103.32 39.3906C103.532 39.6315 103.693 39.9163 103.804 40.2451C103.914 40.5706 103.97 40.9238 103.97 41.3047V41.417C103.97 41.7979 103.914 42.151 103.804 42.4766C103.693 42.8021 103.532 43.0869 103.32 43.3311C103.112 43.5719 102.86 43.7607 102.563 43.8975C102.27 44.0309 101.938 44.0977 101.567 44.0977C101.196 44.0977 100.862 44.0309 100.566 43.8975C100.27 43.7607 100.016 43.5719 99.8045 43.3311C99.5962 43.0869 99.4367 42.8021 99.326 42.4766C99.2153 42.151 99.16 41.7979 99.16 41.417ZM100.063 41.3047V41.417C100.063 41.6807 100.094 41.9297 100.156 42.1641C100.218 42.3952 100.311 42.6003 100.434 42.7793C100.561 42.9583 100.719 43.0999 100.908 43.2041C101.097 43.305 101.317 43.3555 101.567 43.3555C101.815 43.3555 102.031 43.305 102.217 43.2041C102.405 43.0999 102.562 42.9583 102.685 42.7793C102.809 42.6003 102.902 42.3952 102.964 42.1641C103.029 41.9297 103.061 41.6807 103.061 41.417V41.3047C103.061 41.0443 103.029 40.7985 102.964 40.5674C102.902 40.333 102.807 40.1263 102.68 39.9473C102.557 39.765 102.401 39.6217 102.212 39.5176C102.026 39.4134 101.808 39.3613 101.557 39.3613C101.31 39.3613 101.092 39.4134 100.903 39.5176C100.718 39.6217 100.561 39.765 100.434 39.9473C100.311 40.1263 100.218 40.333 100.156 40.5674C100.094 40.7985 100.063 41.0443 100.063 41.3047ZM106.406 39.5469V44H105.502V38.7168H106.381L106.406 39.5469ZM108.056 38.6875L108.051 39.5273C107.976 39.5111 107.905 39.5013 107.836 39.498C107.771 39.4915 107.696 39.4883 107.612 39.4883C107.403 39.4883 107.219 39.5208 107.06 39.5859C106.9 39.651 106.765 39.7422 106.655 39.8594C106.544 39.9766 106.456 40.1165 106.391 40.2793C106.329 40.4388 106.288 40.6146 106.269 40.8066L106.015 40.9531C106.015 40.6341 106.046 40.3346 106.108 40.0547C106.173 39.7747 106.272 39.5273 106.406 39.3125C106.539 39.0944 106.708 38.9251 106.913 38.8047C107.122 38.681 107.369 38.6191 107.656 38.6191C107.721 38.6191 107.796 38.6273 107.88 38.6436C107.965 38.6566 108.024 38.6712 108.056 38.6875ZM110.189 39.7666V44H109.281V38.7168H110.141L110.189 39.7666ZM110.004 41.1582L109.584 41.1436C109.587 40.7822 109.634 40.4486 109.726 40.1426C109.817 39.8333 109.952 39.5648 110.131 39.3369C110.31 39.109 110.533 38.9333 110.8 38.8096C111.067 38.6826 111.376 38.6191 111.728 38.6191C111.975 38.6191 112.203 38.6549 112.411 38.7266C112.619 38.7949 112.8 38.904 112.953 39.0537C113.106 39.2035 113.225 39.3955 113.31 39.6299C113.394 39.8643 113.437 40.1475 113.437 40.4795V44H112.533V40.5234C112.533 40.2467 112.486 40.0254 112.392 39.8594C112.3 39.6934 112.17 39.5729 112.001 39.498C111.832 39.4199 111.633 39.3809 111.405 39.3809C111.138 39.3809 110.915 39.4281 110.736 39.5225C110.557 39.6169 110.414 39.7471 110.307 39.9131C110.199 40.0791 110.121 40.2695 110.072 40.4844C110.027 40.696 110.004 40.9206 110.004 41.1582ZM113.427 40.6602L112.821 40.8457C112.825 40.556 112.872 40.2777 112.963 40.0107C113.057 39.7438 113.192 39.5062 113.368 39.2979C113.547 39.0895 113.767 38.9251 114.027 38.8047C114.288 38.681 114.586 38.6191 114.921 38.6191C115.204 38.6191 115.455 38.6566 115.673 38.7314C115.894 38.8063 116.08 38.9219 116.229 39.0781C116.382 39.2311 116.498 39.4281 116.576 39.6689C116.654 39.9098 116.693 40.1963 116.693 40.5283V44H115.785V40.5186C115.785 40.2223 115.738 39.9928 115.644 39.8301C115.552 39.6641 115.422 39.5485 115.253 39.4834C115.087 39.415 114.888 39.3809 114.657 39.3809C114.459 39.3809 114.283 39.415 114.13 39.4834C113.977 39.5518 113.848 39.6462 113.744 39.7666C113.64 39.8838 113.56 40.0189 113.505 40.1719C113.453 40.3249 113.427 40.4876 113.427 40.6602ZM121.576 43.0967V40.377C121.576 40.1686 121.533 39.988 121.449 39.835C121.367 39.6787 121.244 39.5583 121.078 39.4736C120.912 39.389 120.707 39.3467 120.463 39.3467C120.235 39.3467 120.034 39.3857 119.862 39.4639C119.693 39.542 119.559 39.6445 119.462 39.7715C119.367 39.8984 119.32 40.0352 119.32 40.1816H118.417C118.417 39.9928 118.465 39.8057 118.563 39.6201C118.661 39.4346 118.801 39.2669 118.983 39.1172C119.169 38.9642 119.39 38.8438 119.647 38.7559C119.907 38.6647 120.197 38.6191 120.516 38.6191C120.9 38.6191 121.239 38.6842 121.532 38.8145C121.828 38.9447 122.059 39.1416 122.225 39.4053C122.394 39.6657 122.479 39.9928 122.479 40.3867V42.8477C122.479 43.0234 122.494 43.2106 122.523 43.4092C122.556 43.6077 122.603 43.7786 122.665 43.9219V44H121.722C121.677 43.8958 121.641 43.7575 121.615 43.585C121.589 43.4092 121.576 43.2464 121.576 43.0967ZM121.732 40.7969L121.742 41.4316H120.829C120.572 41.4316 120.342 41.4528 120.14 41.4951C119.938 41.5342 119.769 41.5944 119.632 41.6758C119.496 41.7572 119.392 41.8597 119.32 41.9834C119.248 42.1038 119.213 42.2454 119.213 42.4082C119.213 42.5742 119.25 42.7256 119.325 42.8623C119.4 42.999 119.512 43.1081 119.662 43.1895C119.815 43.2676 120.002 43.3066 120.223 43.3066C120.5 43.3066 120.744 43.248 120.956 43.1309C121.167 43.0137 121.335 42.8704 121.459 42.7012C121.586 42.5319 121.654 42.3675 121.664 42.208L122.049 42.6426C122.027 42.7793 121.965 42.9307 121.864 43.0967C121.763 43.2627 121.628 43.4222 121.459 43.5752C121.293 43.7249 121.094 43.8503 120.863 43.9512C120.635 44.0488 120.378 44.0977 120.091 44.0977C119.733 44.0977 119.419 44.0277 119.149 43.8877C118.882 43.7477 118.674 43.5605 118.524 43.3262C118.378 43.0885 118.304 42.8232 118.304 42.5303C118.304 42.2471 118.36 41.998 118.47 41.7832C118.581 41.5651 118.74 41.3844 118.949 41.2412C119.157 41.0947 119.408 40.984 119.701 40.9092C119.994 40.8343 120.321 40.7969 120.682 40.7969H121.732ZM126.414 43.3555C126.629 43.3555 126.828 43.3115 127.01 43.2236C127.192 43.1357 127.342 43.0153 127.459 42.8623C127.576 42.7061 127.643 42.5286 127.659 42.3301H128.519C128.502 42.6426 128.397 42.9339 128.201 43.2041C128.009 43.471 127.757 43.6875 127.445 43.8535C127.132 44.0163 126.789 44.0977 126.414 44.0977C126.017 44.0977 125.67 44.0277 125.374 43.8877C125.081 43.7477 124.837 43.5557 124.642 43.3115C124.45 43.0674 124.305 42.7874 124.207 42.4717C124.113 42.1527 124.066 41.8158 124.066 41.4609V41.2559C124.066 40.901 124.113 40.5658 124.207 40.25C124.305 39.931 124.45 39.6494 124.642 39.4053C124.837 39.1611 125.081 38.9691 125.374 38.8291C125.67 38.6891 126.017 38.6191 126.414 38.6191C126.828 38.6191 127.189 38.7038 127.498 38.873C127.807 39.0391 128.05 39.2669 128.226 39.5566C128.405 39.8431 128.502 40.1686 128.519 40.5332H127.659C127.643 40.3151 127.581 40.1182 127.474 39.9424C127.37 39.7666 127.226 39.6266 127.044 39.5225C126.865 39.415 126.655 39.3613 126.414 39.3613C126.138 39.3613 125.905 39.4167 125.716 39.5273C125.53 39.6348 125.382 39.7812 125.272 39.9668C125.164 40.1491 125.086 40.3525 125.037 40.5771C124.992 40.7985 124.969 41.0247 124.969 41.2559V41.4609C124.969 41.6921 124.992 41.9199 125.037 42.1445C125.083 42.3691 125.159 42.5726 125.267 42.7549C125.377 42.9372 125.526 43.0837 125.711 43.1943C125.9 43.3018 126.134 43.3555 126.414 43.3555ZM125.916 44.0488H126.566L126.507 44.3076C126.696 44.3402 126.867 44.4183 127.02 44.542C127.176 44.6657 127.254 44.8691 127.254 45.1523C127.254 45.3053 127.222 45.4437 127.156 45.5674C127.095 45.6943 127.002 45.8018 126.878 45.8896C126.754 45.9808 126.6 46.0508 126.414 46.0996C126.232 46.1484 126.019 46.1729 125.775 46.1729L125.74 45.6504C125.89 45.6504 126.025 45.6341 126.146 45.6016C126.269 45.569 126.367 45.5169 126.439 45.4453C126.514 45.3737 126.551 45.2809 126.551 45.167C126.551 45.0596 126.523 44.9749 126.468 44.9131C126.413 44.8512 126.326 44.804 126.209 44.7715C126.095 44.7422 125.947 44.721 125.765 44.708L125.916 44.0488ZM129.695 41.417V41.3047C129.695 40.9238 129.75 40.5706 129.861 40.2451C129.972 39.9163 130.131 39.6315 130.34 39.3906C130.548 39.1465 130.8 38.9577 131.096 38.8242C131.393 38.6875 131.725 38.6191 132.093 38.6191C132.464 38.6191 132.797 38.6875 133.094 38.8242C133.393 38.9577 133.647 39.1465 133.855 39.3906C134.067 39.6315 134.228 39.9163 134.339 40.2451C134.449 40.5706 134.505 40.9238 134.505 41.3047V41.417C134.505 41.7979 134.449 42.151 134.339 42.4766C134.228 42.8021 134.067 43.0869 133.855 43.3311C133.647 43.5719 133.395 43.7607 133.098 43.8975C132.805 44.0309 132.473 44.0977 132.102 44.0977C131.731 44.0977 131.398 44.0309 131.101 43.8975C130.805 43.7607 130.551 43.5719 130.34 43.3311C130.131 43.0869 129.972 42.8021 129.861 42.4766C129.75 42.151 129.695 41.7979 129.695 41.417ZM130.598 41.3047V41.417C130.598 41.6807 130.629 41.9297 130.691 42.1641C130.753 42.3952 130.846 42.6003 130.97 42.7793C131.096 42.9583 131.254 43.0999 131.443 43.2041C131.632 43.305 131.852 43.3555 132.102 43.3555C132.35 43.3555 132.566 43.305 132.752 43.2041C132.941 43.0999 133.097 42.9583 133.221 42.7793C133.344 42.6003 133.437 42.3952 133.499 42.1641C133.564 41.9297 133.596 41.6807 133.596 41.417V41.3047C133.596 41.0443 133.564 40.7985 133.499 40.5674C133.437 40.333 133.343 40.1263 133.216 39.9473C133.092 39.765 132.936 39.6217 132.747 39.5176C132.561 39.4134 132.343 39.3613 132.093 39.3613C131.845 39.3613 131.627 39.4134 131.438 39.5176C131.253 39.6217 131.096 39.765 130.97 39.9473C130.846 40.1263 130.753 40.333 130.691 40.5674C130.629 40.7985 130.598 41.0443 130.598 41.3047ZM133.177 36.5977L133.787 36.6514C133.787 36.889 133.74 37.0973 133.645 37.2764C133.551 37.4554 133.424 37.5938 133.264 37.6914C133.108 37.7891 132.931 37.8379 132.732 37.8379C132.566 37.8379 132.429 37.8151 132.322 37.7695C132.215 37.7207 132.119 37.667 132.034 37.6084C131.949 37.5465 131.86 37.4928 131.765 37.4473C131.674 37.3984 131.56 37.374 131.424 37.374C131.287 37.374 131.171 37.4261 131.077 37.5303C130.986 37.6344 130.94 37.763 130.94 37.916L130.33 37.8867C130.33 37.6491 130.375 37.4408 130.467 37.2617C130.561 37.0794 130.688 36.9378 130.847 36.8369C131.007 36.7327 131.184 36.6807 131.38 36.6807C131.52 36.6807 131.642 36.7051 131.746 36.7539C131.853 36.7995 131.954 36.8532 132.049 36.915C132.143 36.9736 132.241 37.0273 132.342 37.0762C132.443 37.1217 132.558 37.1445 132.688 37.1445C132.825 37.1445 132.941 37.0924 133.035 36.9883C133.129 36.8809 133.177 36.7507 133.177 36.5977ZM138.23 44.0977C137.862 44.0977 137.528 44.0358 137.229 43.9121C136.933 43.7852 136.677 43.6077 136.462 43.3799C136.251 43.152 136.088 42.8818 135.974 42.5693C135.86 42.2568 135.803 41.915 135.803 41.5439V41.3389C135.803 40.9092 135.867 40.5267 135.994 40.1914C136.121 39.8529 136.293 39.5664 136.511 39.332C136.729 39.0977 136.977 38.9202 137.253 38.7998C137.53 38.6794 137.816 38.6191 138.113 38.6191C138.49 38.6191 138.816 38.6842 139.089 38.8145C139.366 38.9447 139.592 39.127 139.768 39.3613C139.944 39.5924 140.074 39.8659 140.159 40.1816C140.243 40.4941 140.286 40.8359 140.286 41.207V41.6123H136.34V40.875H139.382V40.8066C139.369 40.5723 139.32 40.3444 139.236 40.123C139.154 39.9017 139.024 39.7194 138.845 39.5762C138.666 39.4329 138.422 39.3613 138.113 39.3613C137.908 39.3613 137.719 39.4053 137.546 39.4932C137.374 39.5778 137.226 39.7048 137.102 39.874C136.978 40.0433 136.882 40.25 136.814 40.4941C136.746 40.7383 136.711 41.0199 136.711 41.3389V41.5439C136.711 41.7946 136.746 42.0306 136.814 42.252C136.885 42.4701 136.988 42.6621 137.121 42.8281C137.258 42.9941 137.423 43.1243 137.615 43.2188C137.81 43.3132 138.031 43.3604 138.279 43.3604C138.598 43.3604 138.868 43.2952 139.089 43.165C139.311 43.0348 139.504 42.8607 139.67 42.6426L140.217 43.0771C140.103 43.2497 139.958 43.4141 139.783 43.5703C139.607 43.7266 139.39 43.8535 139.133 43.9512C138.879 44.0488 138.578 44.0977 138.23 44.0977ZM144.816 42.5986C144.816 42.4684 144.787 42.348 144.729 42.2373C144.673 42.1234 144.558 42.0208 144.382 41.9297C144.209 41.8353 143.949 41.7539 143.601 41.6855C143.308 41.6237 143.042 41.5505 142.805 41.4658C142.57 41.3812 142.37 41.2786 142.204 41.1582C142.041 41.0378 141.916 40.8962 141.828 40.7334C141.74 40.5706 141.696 40.3802 141.696 40.1621C141.696 39.9538 141.742 39.7568 141.833 39.5713C141.927 39.3857 142.059 39.2214 142.229 39.0781C142.401 38.9349 142.608 38.8226 142.849 38.7412C143.09 38.6598 143.358 38.6191 143.654 38.6191C144.077 38.6191 144.439 38.694 144.738 38.8438C145.038 38.9935 145.267 39.1937 145.427 39.4443C145.586 39.6917 145.666 39.9668 145.666 40.2695H144.763C144.763 40.123 144.719 39.9814 144.631 39.8447C144.546 39.7048 144.421 39.5892 144.255 39.498C144.092 39.4069 143.892 39.3613 143.654 39.3613C143.404 39.3613 143.2 39.4004 143.044 39.4785C142.891 39.5534 142.779 39.6494 142.707 39.7666C142.639 39.8838 142.604 40.0075 142.604 40.1377C142.604 40.2354 142.621 40.3232 142.653 40.4014C142.689 40.4762 142.751 40.5462 142.839 40.6113C142.927 40.6732 143.05 40.7318 143.21 40.7871C143.369 40.8424 143.573 40.8978 143.82 40.9531C144.253 41.0508 144.61 41.168 144.89 41.3047C145.17 41.4414 145.378 41.609 145.515 41.8076C145.651 42.0062 145.72 42.2471 145.72 42.5303C145.72 42.7614 145.671 42.973 145.573 43.165C145.479 43.3571 145.34 43.5231 145.158 43.6631C144.979 43.7998 144.764 43.9072 144.514 43.9854C144.266 44.0602 143.988 44.0977 143.679 44.0977C143.213 44.0977 142.819 44.0146 142.497 43.8486C142.175 43.6826 141.931 43.4678 141.765 43.2041C141.599 42.9404 141.516 42.6621 141.516 42.3691H142.424C142.437 42.6165 142.508 42.8135 142.639 42.96C142.769 43.1032 142.928 43.2057 143.117 43.2676C143.306 43.3262 143.493 43.3555 143.679 43.3555C143.926 43.3555 144.133 43.3229 144.299 43.2578C144.468 43.1927 144.597 43.1032 144.685 42.9893C144.772 42.8753 144.816 42.7451 144.816 42.5986ZM95.2791 55.0967V52.377C95.2791 52.1686 95.2368 51.988 95.1521 51.835C95.0708 51.6787 94.9471 51.5583 94.7811 51.4736C94.615 51.389 94.41 51.3467 94.1658 51.3467C93.938 51.3467 93.7378 51.3857 93.5652 51.4639C93.396 51.542 93.2625 51.6445 93.1648 51.7715C93.0704 51.8984 93.0232 52.0352 93.0232 52.1816H92.1199C92.1199 51.9928 92.1688 51.8057 92.2664 51.6201C92.3641 51.4346 92.504 51.2669 92.6863 51.1172C92.8719 50.9642 93.0932 50.8438 93.3504 50.7559C93.6108 50.6647 93.9005 50.6191 94.2195 50.6191C94.6036 50.6191 94.9422 50.6842 95.2352 50.8145C95.5314 50.9447 95.7625 51.1416 95.9285 51.4053C96.0978 51.6657 96.1824 51.9928 96.1824 52.3867V54.8477C96.1824 55.0234 96.1971 55.2106 96.2264 55.4092C96.2589 55.6077 96.3061 55.7786 96.368 55.9219V56H95.4256C95.38 55.8958 95.3442 55.7575 95.3182 55.585C95.2921 55.4092 95.2791 55.2464 95.2791 55.0967ZM95.4354 52.7969L95.4451 53.4316H94.532C94.2749 53.4316 94.0454 53.4528 93.8436 53.4951C93.6417 53.5342 93.4725 53.5944 93.3357 53.6758C93.199 53.7572 93.0949 53.8597 93.0232 53.9834C92.9516 54.1038 92.9158 54.2454 92.9158 54.4082C92.9158 54.5742 92.9533 54.7256 93.0281 54.8623C93.103 54.999 93.2153 55.1081 93.365 55.1895C93.518 55.2676 93.7052 55.3066 93.9266 55.3066C94.2033 55.3066 94.4474 55.248 94.659 55.1309C94.8706 55.0137 95.0382 54.8704 95.1619 54.7012C95.2889 54.5319 95.3572 54.3675 95.367 54.208L95.7527 54.6426C95.7299 54.7793 95.6681 54.9307 95.5672 55.0967C95.4663 55.2627 95.3312 55.4222 95.1619 55.5752C94.9959 55.7249 94.7973 55.8503 94.5662 55.9512C94.3383 56.0488 94.0812 56.0977 93.7947 56.0977C93.4367 56.0977 93.1225 56.0277 92.8523 55.8877C92.5854 55.7477 92.3771 55.5605 92.2273 55.3262C92.0809 55.0885 92.0076 54.8232 92.0076 54.5303C92.0076 54.2471 92.063 53.998 92.1736 53.7832C92.2843 53.5651 92.4438 53.3844 92.6521 53.2412C92.8605 53.0947 93.1111 52.984 93.4041 52.9092C93.6971 52.8343 94.0242 52.7969 94.3855 52.7969H95.4354ZM101.333 54.9746V48.5H102.242V56H101.412L101.333 54.9746ZM97.7787 53.417V53.3145C97.7787 52.9108 97.8275 52.5446 97.9252 52.2158C98.0261 51.8838 98.1677 51.599 98.35 51.3613C98.5355 51.1237 98.7553 50.9414 99.0092 50.8145C99.2663 50.6842 99.5528 50.6191 99.8686 50.6191C100.201 50.6191 100.49 50.6777 100.738 50.7949C100.988 50.9089 101.2 51.0765 101.372 51.2979C101.548 51.516 101.687 51.7796 101.788 52.0889C101.888 52.3981 101.958 52.748 101.997 53.1387V53.5879C101.962 53.9753 101.892 54.3236 101.788 54.6328C101.687 54.9421 101.548 55.2057 101.372 55.4238C101.2 55.6419 100.988 55.8096 100.738 55.9268C100.487 56.0407 100.194 56.0977 99.8588 56.0977C99.5495 56.0977 99.2663 56.0309 99.0092 55.8975C98.7553 55.764 98.5355 55.5768 98.35 55.3359C98.1677 55.0951 98.0261 54.8118 97.9252 54.4863C97.8275 54.1576 97.7787 53.8011 97.7787 53.417ZM98.6869 53.3145V53.417C98.6869 53.6807 98.713 53.9281 98.765 54.1592C98.8204 54.3903 98.905 54.5938 99.0189 54.7695C99.1329 54.9453 99.2777 55.0837 99.4535 55.1846C99.6293 55.2822 99.8393 55.3311 100.083 55.3311C100.383 55.3311 100.629 55.2676 100.821 55.1406C101.016 55.0137 101.172 54.846 101.289 54.6377C101.407 54.4294 101.498 54.2031 101.563 53.959V52.7822C101.524 52.6032 101.467 52.4307 101.392 52.2646C101.32 52.0954 101.226 51.9456 101.109 51.8154C100.995 51.682 100.853 51.5762 100.684 51.498C100.518 51.4199 100.321 51.3809 100.093 51.3809C99.8458 51.3809 99.6326 51.4329 99.4535 51.5371C99.2777 51.638 99.1329 51.778 99.0189 51.957C98.905 52.1328 98.8204 52.3379 98.765 52.5723C98.713 52.8034 98.6869 53.0508 98.6869 53.3145ZM105.029 50.7168V56H104.121V50.7168H105.029ZM104.053 49.3154C104.053 49.1689 104.097 49.0452 104.185 48.9443C104.276 48.8434 104.409 48.793 104.585 48.793C104.757 48.793 104.889 48.8434 104.98 48.9443C105.075 49.0452 105.122 49.1689 105.122 49.3154C105.122 49.4554 105.075 49.5758 104.98 49.6768C104.889 49.7744 104.757 49.8232 104.585 49.8232C104.409 49.8232 104.276 49.7744 104.185 49.6768C104.097 49.5758 104.053 49.4554 104.053 49.3154ZM108.994 55.3555C109.209 55.3555 109.407 55.3115 109.589 55.2236C109.772 55.1357 109.921 55.0153 110.039 54.8623C110.156 54.7061 110.223 54.5286 110.239 54.3301H111.098C111.082 54.6426 110.976 54.9339 110.781 55.2041C110.589 55.471 110.337 55.6875 110.024 55.8535C109.712 56.0163 109.368 56.0977 108.994 56.0977C108.597 56.0977 108.25 56.0277 107.954 55.8877C107.661 55.7477 107.417 55.5557 107.221 55.3115C107.029 55.0674 106.884 54.7874 106.787 54.4717C106.692 54.1527 106.645 53.8158 106.645 53.4609V53.2559C106.645 52.901 106.692 52.5658 106.787 52.25C106.884 51.931 107.029 51.6494 107.221 51.4053C107.417 51.1611 107.661 50.9691 107.954 50.8291C108.25 50.6891 108.597 50.6191 108.994 50.6191C109.407 50.6191 109.768 50.7038 110.078 50.873C110.387 51.0391 110.629 51.2669 110.805 51.5566C110.984 51.8431 111.082 52.1686 111.098 52.5332H110.239C110.223 52.3151 110.161 52.1182 110.053 51.9424C109.949 51.7666 109.806 51.6266 109.624 51.5225C109.445 51.415 109.235 51.3613 108.994 51.3613C108.717 51.3613 108.484 51.4167 108.296 51.5273C108.11 51.6348 107.962 51.7812 107.851 51.9668C107.744 52.1491 107.666 52.3525 107.617 52.5771C107.571 52.7985 107.548 53.0247 107.548 53.2559V53.4609C107.548 53.6921 107.571 53.9199 107.617 54.1445C107.662 54.3691 107.739 54.5726 107.846 54.7549C107.957 54.9372 108.105 55.0837 108.291 55.1943C108.479 55.3018 108.714 55.3555 108.994 55.3555ZM113.495 50.7168V56H112.587V50.7168H113.495ZM112.519 49.3154C112.519 49.1689 112.563 49.0452 112.651 48.9443C112.742 48.8434 112.875 48.793 113.051 48.793C113.224 48.793 113.355 48.8434 113.446 48.9443C113.541 49.0452 113.588 49.1689 113.588 49.3154C113.588 49.4554 113.541 49.5758 113.446 49.6768C113.355 49.7744 113.224 49.8232 113.051 49.8232C112.875 49.8232 112.742 49.7744 112.651 49.6768C112.563 49.5758 112.519 49.4554 112.519 49.3154ZM115.106 53.417V53.3047C115.106 52.9238 115.162 52.5706 115.272 52.2451C115.383 51.9163 115.542 51.6315 115.751 51.3906C115.959 51.1465 116.211 50.9577 116.508 50.8242C116.804 50.6875 117.136 50.6191 117.504 50.6191C117.875 50.6191 118.208 50.6875 118.505 50.8242C118.804 50.9577 119.058 51.1465 119.266 51.3906C119.478 51.6315 119.639 51.9163 119.75 52.2451C119.86 52.5706 119.916 52.9238 119.916 53.3047V53.417C119.916 53.7979 119.86 54.151 119.75 54.4766C119.639 54.8021 119.478 55.0869 119.266 55.3311C119.058 55.5719 118.806 55.7607 118.51 55.8975C118.217 56.0309 117.885 56.0977 117.513 56.0977C117.142 56.0977 116.809 56.0309 116.513 55.8975C116.216 55.7607 115.962 55.5719 115.751 55.3311C115.542 55.0869 115.383 54.8021 115.272 54.4766C115.162 54.151 115.106 53.7979 115.106 53.417ZM116.01 53.3047V53.417C116.01 53.6807 116.04 53.9297 116.102 54.1641C116.164 54.3952 116.257 54.6003 116.381 54.7793C116.508 54.9583 116.665 55.0999 116.854 55.2041C117.043 55.305 117.263 55.3555 117.513 55.3555C117.761 55.3555 117.977 55.305 118.163 55.2041C118.352 55.0999 118.508 54.9583 118.632 54.7793C118.755 54.6003 118.848 54.3952 118.91 54.1641C118.975 53.9297 119.008 53.6807 119.008 53.417V53.3047C119.008 53.0443 118.975 52.7985 118.91 52.5674C118.848 52.333 118.754 52.1263 118.627 51.9473C118.503 51.765 118.347 51.6217 118.158 51.5176C117.972 51.4134 117.754 51.3613 117.504 51.3613C117.256 51.3613 117.038 51.4134 116.849 51.5176C116.664 51.6217 116.508 51.765 116.381 51.9473C116.257 52.1263 116.164 52.333 116.102 52.5674C116.04 52.7985 116.01 53.0443 116.01 53.3047ZM122.352 51.8447V56H121.449V50.7168H122.303L122.352 51.8447ZM122.137 53.1582L121.761 53.1436C121.764 52.7822 121.818 52.4486 121.922 52.1426C122.026 51.8333 122.173 51.5648 122.362 51.3369C122.551 51.109 122.775 50.9333 123.036 50.8096C123.299 50.6826 123.591 50.6191 123.91 50.6191C124.17 50.6191 124.404 50.6549 124.613 50.7266C124.821 50.7949 124.998 50.9056 125.145 51.0586C125.295 51.2116 125.409 51.4102 125.487 51.6543C125.565 51.8952 125.604 52.1898 125.604 52.5381V56H124.696V52.5283C124.696 52.2516 124.655 52.0303 124.574 51.8643C124.492 51.695 124.373 51.5729 124.217 51.498C124.061 51.4199 123.869 51.3809 123.641 51.3809C123.416 51.3809 123.211 51.4281 123.026 51.5225C122.843 51.6169 122.686 51.7471 122.552 51.9131C122.422 52.0791 122.319 52.2695 122.245 52.4844C122.173 52.696 122.137 52.9206 122.137 53.1582ZM130.491 55.0967V52.377C130.491 52.1686 130.449 51.988 130.364 51.835C130.283 51.6787 130.159 51.5583 129.993 51.4736C129.827 51.389 129.622 51.3467 129.378 51.3467C129.15 51.3467 128.95 51.3857 128.777 51.4639C128.608 51.542 128.475 51.6445 128.377 51.7715C128.283 51.8984 128.235 52.0352 128.235 52.1816H127.332C127.332 51.9928 127.381 51.8057 127.479 51.6201C127.576 51.4346 127.716 51.2669 127.898 51.1172C128.084 50.9642 128.305 50.8438 128.562 50.7559C128.823 50.6647 129.113 50.6191 129.432 50.6191C129.816 50.6191 130.154 50.6842 130.447 50.8145C130.743 50.9447 130.975 51.1416 131.141 51.4053C131.31 51.6657 131.395 51.9928 131.395 52.3867V54.8477C131.395 55.0234 131.409 55.2106 131.438 55.4092C131.471 55.6077 131.518 55.7786 131.58 55.9219V56H130.638C130.592 55.8958 130.556 55.7575 130.53 55.585C130.504 55.4092 130.491 55.2464 130.491 55.0967ZM130.647 52.7969L130.657 53.4316H129.744C129.487 53.4316 129.257 53.4528 129.056 53.4951C128.854 53.5342 128.685 53.5944 128.548 53.6758C128.411 53.7572 128.307 53.8597 128.235 53.9834C128.164 54.1038 128.128 54.2454 128.128 54.4082C128.128 54.5742 128.165 54.7256 128.24 54.8623C128.315 54.999 128.427 55.1081 128.577 55.1895C128.73 55.2676 128.917 55.3066 129.139 55.3066C129.415 55.3066 129.66 55.248 129.871 55.1309C130.083 55.0137 130.25 54.8704 130.374 54.7012C130.501 54.5319 130.569 54.3675 130.579 54.208L130.965 54.6426C130.942 54.7793 130.88 54.9307 130.779 55.0967C130.678 55.2627 130.543 55.4222 130.374 55.5752C130.208 55.7249 130.009 55.8503 129.778 55.9512C129.55 56.0488 129.293 56.0977 129.007 56.0977C128.649 56.0977 128.335 56.0277 128.064 55.8877C127.798 55.7477 127.589 55.5605 127.439 55.3262C127.293 55.0885 127.22 54.8232 127.22 54.5303C127.22 54.2471 127.275 53.998 127.386 53.7832C127.496 53.5651 127.656 53.3844 127.864 53.2412C128.073 53.0947 128.323 52.984 128.616 52.9092C128.909 52.8343 129.236 52.7969 129.598 52.7969H130.647ZM134.197 50.7168V56H133.289V50.7168H134.197ZM133.22 49.3154C133.22 49.1689 133.264 49.0452 133.352 48.9443C133.443 48.8434 133.577 48.793 133.753 48.793C133.925 48.793 134.057 48.8434 134.148 48.9443C134.242 49.0452 134.29 49.1689 134.29 49.3154C134.29 49.4554 134.242 49.5758 134.148 49.6768C134.057 49.7744 133.925 49.8232 133.753 49.8232C133.577 49.8232 133.443 49.7744 133.352 49.6768C133.264 49.5758 133.22 49.4554 133.22 49.3154ZM139.123 54.5986C139.123 54.4684 139.094 54.348 139.035 54.2373C138.98 54.1234 138.864 54.0208 138.689 53.9297C138.516 53.8353 138.256 53.7539 137.907 53.6855C137.614 53.6237 137.349 53.5505 137.112 53.4658C136.877 53.3812 136.677 53.2786 136.511 53.1582C136.348 53.0378 136.223 52.8962 136.135 52.7334C136.047 52.5706 136.003 52.3802 136.003 52.1621C136.003 51.9538 136.049 51.7568 136.14 51.5713C136.234 51.3857 136.366 51.2214 136.535 51.0781C136.708 50.9349 136.915 50.8226 137.155 50.7412C137.396 50.6598 137.665 50.6191 137.961 50.6191C138.384 50.6191 138.746 50.694 139.045 50.8438C139.345 50.9935 139.574 51.1937 139.734 51.4443C139.893 51.6917 139.973 51.9668 139.973 52.2695H139.07C139.07 52.123 139.026 51.9814 138.938 51.8447C138.853 51.7048 138.728 51.5892 138.562 51.498C138.399 51.4069 138.199 51.3613 137.961 51.3613C137.71 51.3613 137.507 51.4004 137.351 51.4785C137.198 51.5534 137.085 51.6494 137.014 51.7666C136.946 51.8838 136.911 52.0075 136.911 52.1377C136.911 52.2354 136.928 52.3232 136.96 52.4014C136.996 52.4762 137.058 52.5462 137.146 52.6113C137.234 52.6732 137.357 52.7318 137.517 52.7871C137.676 52.8424 137.88 52.8978 138.127 52.9531C138.56 53.0508 138.917 53.168 139.196 53.3047C139.476 53.4414 139.685 53.609 139.821 53.8076C139.958 54.0062 140.027 54.2471 140.027 54.5303C140.027 54.7614 139.978 54.973 139.88 55.165C139.786 55.3571 139.647 55.5231 139.465 55.6631C139.286 55.7998 139.071 55.9072 138.821 55.9854C138.573 56.0602 138.295 56.0977 137.986 56.0977C137.52 56.0977 137.126 56.0146 136.804 55.8486C136.482 55.6826 136.237 55.4678 136.071 55.2041C135.905 54.9404 135.822 54.6621 135.822 54.3691H136.731C136.744 54.6165 136.815 54.8135 136.946 54.96C137.076 55.1032 137.235 55.2057 137.424 55.2676C137.613 55.3262 137.8 55.3555 137.986 55.3555C138.233 55.3555 138.44 55.3229 138.606 55.2578C138.775 55.1927 138.904 55.1032 138.991 54.9893C139.079 54.8753 139.123 54.7451 139.123 54.5986Z" fill="#1A98FF"/>
</svg>
