<svg width="184" height="138" viewBox="0 0 184 138" fill="none" xmlns="http://www.w3.org/2000/svg">
<path d="M153.645 3.26462L72.962 83.9481C70.7874 86.1226 67.2612 86.1226 65.0866 83.9481L30.3547 49.2162L2.91064 76.6596L55.3022 129.051C58.9416 132.691 63.8777 134.735 69.0243 134.735C74.1705 134.735 79.1073 132.69 82.7459 129.051L181.089 30.708L153.645 3.26462Z" fill="white"/>
<g opacity="0.1">
<path d="M172.014 21.633L68.1931 125.453C65.3206 128.326 61.7089 130.284 57.8064 131.157C61.0645 133.466 64.9781 134.735 69.0243 134.735C74.1706 134.735 79.1073 132.69 82.746 129.051L181.089 30.708L172.014 21.633Z" fill="black"/>
</g>
<path d="M69.0247 137.646C63.0637 137.646 57.4592 135.325 53.2438 131.109L0.852529 78.7177C-0.284176 77.581 -0.284176 75.7378 0.852529 74.6014L28.2966 47.1573C29.4337 46.0206 31.2766 46.0206 32.4133 47.1573L42.7158 57.4595C43.8526 58.5962 43.8526 60.4395 42.7158 61.5758C41.5784 62.7125 39.7355 62.7122 38.5992 61.5758L30.3551 53.3318L7.02768 76.6592L57.3611 126.993C60.4765 130.108 64.6187 131.824 69.025 131.824C73.431 131.824 77.5728 130.108 80.6889 126.993L147.875 59.8066C149.011 58.6699 150.854 58.6696 151.991 59.8066C153.128 60.9433 153.128 62.7866 151.991 63.9229L84.8052 131.11C80.5894 135.325 74.9849 137.646 69.0247 137.646Z" fill="black"/>
<path d="M69.0247 88.4898C66.7595 88.4898 64.6302 87.6079 63.0289 86.0062L46.8325 69.8098C45.6958 68.6731 45.6958 66.8299 46.8325 65.6936C47.9696 64.5569 49.8125 64.5569 50.9492 65.6936L67.1455 81.8899C67.6472 82.3916 68.3149 82.668 69.0247 82.668C69.7344 82.668 70.4022 82.3916 70.9042 81.8895L151.587 1.20647C152.724 0.0697666 154.567 0.0697666 155.704 1.20647L183.148 28.6506C183.693 29.1961 184 29.9368 184 30.7087C184 31.4806 183.694 32.2213 183.148 32.7668L160.224 55.6903C159.087 56.827 157.244 56.8267 156.108 55.6903C154.971 54.5536 154.971 52.7104 156.108 51.574L176.973 30.7087L153.646 7.38162L75.0205 86.0062C73.4188 87.6076 71.2891 88.4898 69.0247 88.4898Z" fill="black"/>
</svg>
